<svg width="16" height="17" viewBox="0 0 16 17" fill="none" xmlns="http://www.w3.org/2000/svg">
<mask id="mask0_703_29363" style="mask-type:alpha" maskUnits="userSpaceOnUse" x="0" y="0" width="16" height="17">
<rect y="0.5" width="16" height="16" fill="#D9D9D9"/>
</mask>
<g mask="url(#mask0_703_29363)">
<path d="M8.00008 10.1667C8.46675 10.1667 8.86119 10.0056 9.18341 9.68341C9.50564 9.36119 9.66675 8.96675 9.66675 8.50008C9.66675 8.03341 9.50564 7.63897 9.18341 7.31675C8.86119 6.99453 8.46675 6.83342 8.00008 6.83342C7.53341 6.83342 7.13897 6.99453 6.81675 7.31675C6.49453 7.63897 6.33342 8.03341 6.33342 8.50008C6.33342 8.96675 6.49453 9.36119 6.81675 9.68341C7.13897 10.0056 7.53341 10.1667 8.00008 10.1667ZM8.00008 14.8334C7.1223 14.8334 6.29741 14.6667 5.52541 14.3334C4.75297 14.0001 4.08341 13.5501 3.51675 12.9834C2.95008 12.4167 2.50008 11.7472 2.16675 10.9747C1.83341 10.2027 1.66675 9.37786 1.66675 8.50008C1.66675 7.6223 1.83341 6.79719 2.16675 6.02475C2.50008 5.25275 2.95008 4.58341 3.51675 4.01675C4.08341 3.45008 4.75297 3.00008 5.52541 2.66675C6.29741 2.33341 7.1223 2.16675 8.00008 2.16675C8.87786 2.16675 9.70297 2.33341 10.4754 2.66675C11.2474 3.00008 11.9167 3.45008 12.4834 4.01675C13.0501 4.58341 13.5001 5.25275 13.8334 6.02475C14.1667 6.79719 14.3334 7.6223 14.3334 8.50008C14.3334 9.37786 14.1667 10.2027 13.8334 10.9747C13.5001 11.7472 13.0501 12.4167 12.4834 12.9834C11.9167 13.5501 11.2474 14.0001 10.4754 14.3334C9.70297 14.6667 8.87786 14.8334 8.00008 14.8334Z" fill="#34A853"/>
</g>
</svg>
