<svg width="40" height="40" viewBox="0 0 40 40" fill="none" xmlns="http://www.w3.org/2000/svg">
<rect width="40" height="40" rx="8" fill="#0D0D0D"/>
<mask id="mask0_703_29367" style="mask-type:alpha" maskUnits="userSpaceOnUse" x="8" y="8" width="24" height="24">
<rect x="8" y="8" width="24" height="24" fill="#D9D9D9"/>
</mask>
<g mask="url(#mask0_703_29367)">
<path d="M22.0504 28.1001V26.5501C23.4837 26.1001 24.6421 25.2708 25.5254 24.0621C26.4087 22.8541 26.8504 21.4918 26.8504 19.9751C26.8504 18.4584 26.4087 17.0958 25.5254 15.8871C24.6421 14.6791 23.4837 13.8501 22.0504 13.4001V11.8501C23.9004 12.3501 25.4127 13.3501 26.5874 14.8501C27.7627 16.3501 28.3504 18.0584 28.3504 19.9751C28.3504 21.8918 27.7627 23.6001 26.5874 25.1001C25.4127 26.6001 23.9004 27.6001 22.0504 28.1001ZM11.6504 22.5001V17.5001H15.3754L19.6504 13.2001V26.8001L15.3754 22.5001H11.6504ZM22.0504 23.6501V16.3001C22.7171 16.6668 23.2337 17.1834 23.6004 17.8501C23.9671 18.5168 24.1504 19.2334 24.1504 20.0001C24.1504 20.7668 23.9671 21.4751 23.6004 22.1251C23.2337 22.7751 22.7171 23.2834 22.0504 23.6501ZM18.1504 16.8501L16.0004 19.0001H13.1504V21.0001H16.0004L18.1504 23.1501V16.8501Z" fill="#DBDBDB"/>
</g>
</svg>
