<svg width="16" height="17" viewBox="0 0 16 17" fill="none" xmlns="http://www.w3.org/2000/svg">
<mask id="mask0_703_29390" style="mask-type:alpha" maskUnits="userSpaceOnUse" x="0" y="0" width="16" height="17">
<rect y="0.5" width="16" height="16" fill="#D9D9D9"/>
</mask>
<g mask="url(#mask0_703_29390)">
<path d="M7.98312 14.1667C6.53868 14.1667 5.28023 13.6918 4.20779 12.742C3.13579 11.7918 2.52201 10.6 2.36646 9.16671H3.38312C3.54979 10.3223 4.06646 11.2778 4.93312 12.0334C5.79979 12.7889 6.81645 13.1667 7.98312 13.1667C9.28312 13.1667 10.386 12.7138 11.2918 11.808C12.1971 10.9027 12.6498 9.80004 12.6498 8.50004C12.6498 7.20004 12.1971 6.09715 11.2918 5.19137C10.386 4.28604 9.28312 3.83337 7.98312 3.83337C7.2609 3.83337 6.58045 3.99449 5.94179 4.31671C5.30268 4.63893 4.75534 5.08337 4.29979 5.65004H6.03312V6.65004H2.64979V3.26671H3.64979V4.85004C4.19423 4.2056 4.84423 3.70826 5.59979 3.35804C6.35534 3.00826 7.14979 2.83337 7.98312 2.83337C8.77201 2.83337 9.5109 2.98337 10.1998 3.28337C10.8887 3.58337 11.4887 3.98893 11.9998 4.50004C12.5109 5.01115 12.9136 5.60848 13.2078 6.29204C13.5025 6.97515 13.6498 7.71115 13.6498 8.50004C13.6498 9.28893 13.5025 10.0249 13.2078 10.708C12.9136 11.3916 12.5109 11.9889 11.9998 12.5C11.4887 13.0112 10.8887 13.4167 10.1998 13.7167C9.5109 14.0167 8.77201 14.1667 7.98312 14.1667ZM9.98312 11.1834L7.49979 8.70004V5.16671H8.49979V8.30004L10.6831 10.4834L9.98312 11.1834Z" fill="#AB04D8"/>
</g>
</svg>
