<svg width="16" height="17" viewBox="0 0 16 17" fill="none" xmlns="http://www.w3.org/2000/svg">
<g clip-path="url(#clip0_733_487)">
<path d="M3.75728 4.25724C4.35424 3.66018 5.07048 3.19582 5.8592 2.89454C6.64791 2.59325 7.49133 2.46181 8.33432 2.50882C9.17731 2.55582 10.0009 2.78021 10.7512 3.16731C11.5015 3.55441 12.1617 4.09551 12.6886 4.75524L8.94261 8.4999L12.6886 12.2446C12.1791 12.8815 11.545 13.4078 10.8252 13.7914C10.1053 14.175 9.31486 14.4078 8.50201 14.4756C7.68917 14.5434 6.87104 14.4447 6.09762 14.1857C5.3242 13.9266 4.61172 13.5125 4.00372 12.9688C3.39573 12.4251 2.90498 11.7631 2.56146 11.0233C2.21795 10.2835 2.02888 9.48138 2.00582 8.66604C1.98275 7.85071 2.12617 7.03923 2.42731 6.28119C2.72845 5.52315 3.18099 4.83448 3.75728 4.25724V4.25724Z" stroke="#DBDBDB" stroke-linecap="round" stroke-linejoin="round"/>
<path d="M7.66667 6.16659C8.03486 6.16659 8.33333 5.86811 8.33333 5.49992C8.33333 5.13173 8.03486 4.83325 7.66667 4.83325C7.29848 4.83325 7 5.13173 7 5.49992C7 5.86811 7.29848 6.16659 7.66667 6.16659Z" fill="#DBDBDB" stroke="#DBDBDB" stroke-linecap="round" stroke-linejoin="round"/>
</g>
<defs>
<clipPath id="clip0_733_487">
<rect width="16" height="16" fill="white" transform="translate(0 0.5)"/>
</clipPath>
</defs>
</svg>
