<svg width="16" height="17" viewBox="0 0 16 17" fill="none" xmlns="http://www.w3.org/2000/svg">
<g clip-path="url(#clip0_318_10960)">
<path d="M12.6667 6.30659L9.11133 3.54126C8.79932 3.29853 8.4153 3.16675 8.02 3.16675C7.62469 3.16675 7.24067 3.29853 6.92866 3.54126L3.37266 6.30659C3.15896 6.47278 2.98606 6.68561 2.86717 6.92883C2.74828 7.17204 2.68654 7.43921 2.68666 7.70993V12.5099C2.68666 12.8635 2.82714 13.2027 3.07719 13.4527C3.32724 13.7028 3.66638 13.8433 4.02 13.8433H12.02C12.3736 13.8433 12.7128 13.7028 12.9628 13.4527C13.2129 13.2027 13.3533 12.8635 13.3533 12.5099V7.70993C13.3533 7.16126 13.1 6.64326 12.6667 6.30659Z" stroke="#E8E8E8" stroke-linecap="round" stroke-linejoin="round"/>
</g>
<defs>
<clipPath id="clip0_318_10960">
<rect width="16" height="16" fill="white" transform="translate(0 0.5)"/>
</clipPath>
</defs>
</svg>
