<svg width="56" height="41" viewBox="0 0 56 41" fill="none" xmlns="http://www.w3.org/2000/svg">
<g clip-path="url(#clip0_318_10771)">
<path d="M1.26335 14.9922L1.49854 15.5049H1.38033L3.2692 18.9812H3.49084L4.91673 21.8315H8.50854V22.8666L12.2937 25.1747L12.3195 25.0158L13.2578 25.59L13.2664 26.2739L13.4216 26.2665V30.7127C13.4216 30.7127 13.3391 31.579 14.0791 31.8624L27.2766 39.5433C27.2766 39.5433 27.9341 39.8477 28.5362 39.5433L41.6118 31.9943C41.6118 31.9943 42.3691 31.7934 42.4947 30.9271L42.5501 26.3355V25.5037L43.268 25.1402V25.2597L45.0596 24.285L47.3462 22.8346V21.8759L47.4262 21.8795V21.8216H50.8764L52.1533 19.2683H52.2432L52.4168 18.9676L52.5276 18.9405L54.5519 15.2596L54.3303 15.2177L54.4239 14.9392H49.0195L48.9543 14.7963L48.761 14.8049C48.761 14.8049 48.9764 14.2146 48.2303 13.8302C47.606 13.5073 46.7637 12.9022 42.3937 13.1746L40.8065 7.17205C40.8065 7.17205 40.6686 6.58054 39.4779 6.67297H33.2769V3.17816C33.2769 3.17816 33.203 2.32295 32.431 2.36731L30.4411 3.35069L28.3823 1.00932C28.3823 1.00932 27.9883 0.714796 27.6103 1.00932L25.5823 3.38889L23.4434 2.44741C23.4434 2.44741 23.0211 2.2983 22.776 2.64827C22.776 2.64827 22.6788 2.78013 22.7034 3.00811V6.70254H15.686C15.686 6.70254 15.2772 6.68159 15.1565 7.09688L13.6124 12.9318C13.6124 12.9318 9.83838 12.3329 8.31153 13.357C8.31153 13.357 7.08019 13.7636 7.00631 14.8899L1.26458 14.991L1.26335 14.9922Z" fill="black"/>
<path d="M28.0794 0.98584C28.2518 0.98584 28.4143 1.05731 28.5375 1.18917C28.636 1.29268 29.5127 2.27483 30.0422 2.86879L30.5544 3.44428L31.2366 3.08445L32.213 2.56935C32.3509 2.50403 32.4741 2.47076 32.58 2.47076C32.8693 2.47076 33.0786 2.76158 33.1144 2.81704L33.1205 2.82936L33.1525 2.87619C33.1809 2.91932 33.2535 3.12635 33.2535 3.56135V6.78874H34.2386L39.5309 6.79121H39.5493H39.5678C39.5998 6.79121 39.6306 6.78997 39.6614 6.78997C40.4815 6.78997 40.6945 7.21512 40.745 7.37901L40.7585 7.42954L42.0551 12.3871L42.2583 13.1647L43.0611 13.1215C43.4724 13.0994 43.8701 13.0883 44.2444 13.0883C47.4225 13.0883 48.4864 13.9053 48.6489 14.2491L48.7696 15.0143H49.6106L54.43 15.0205L54.27 15.3508L54.382 15.3582L52.2875 19.1179H52.1016L51.8208 19.6256L50.6806 21.6848H47.2403V22.9232L46.0065 23.6823L45.2196 24.1666L45.4142 24.5351L43.7667 26.3503H43.4404L42.459 26.3552V30.2986C42.3999 31.5469 41.7633 31.8266 41.5946 31.8796L41.4801 31.8944L41.3188 31.9868C40.8693 32.2431 30.2934 38.2728 28.8133 39.2352C28.5141 39.4299 28.2198 39.5285 27.939 39.5285C27.6152 39.5285 27.3899 39.4016 27.3369 39.3683L27.3172 39.351L27.2458 39.3091C26.7631 39.0257 15.4065 32.3565 14.1653 31.712C13.5706 31.4027 13.5755 30.6978 13.5804 30.5832L13.5829 30.5598V26.3207H11.0759V24.2011L10.5649 23.9202L8.73511 22.9134L8.7388 22.683L8.75604 21.6811H5.2849L4.15453 19.6392L3.87379 19.1315H3.69524L1.66969 15.4592H1.80268L1.56626 14.9798L6.80683 14.8381L7.30676 14.8246L7.5912 14.413C8.4753 13.1314 10.922 12.9921 11.9329 12.9921C12.535 12.9921 12.9475 13.0365 12.95 13.0365L13.8033 13.1326L14.0139 12.2996L15.2981 7.22005C15.5112 6.87131 15.7919 6.82448 15.8633 6.81832L21.7072 6.81092H22.6837L22.6911 5.83248L22.712 3.19535H22.7256L22.712 3.12265C22.7194 3.04871 22.7625 2.87619 22.9952 2.72338C23.1196 2.64205 23.26 2.60262 23.425 2.60262C23.574 2.60262 23.6946 2.63589 23.7377 2.64945L24.9543 3.2237L25.6241 3.53917L26.113 2.9834C26.1585 2.93287 27.2187 1.72645 27.6177 1.20026C27.6312 1.18301 27.6386 1.17315 27.6411 1.17069C27.8036 1.02158 27.9686 0.989537 28.0794 0.989537M28.0794 0C27.6879 0 27.2914 0.144179 26.9651 0.44979C26.9158 0.495385 26.8727 0.547141 26.8321 0.601363C26.4504 1.10414 25.3729 2.32905 25.3729 2.32905L24.1133 1.73508C24.1133 1.73508 23.8227 1.61431 23.4237 1.61431C23.1344 1.61431 22.7871 1.67839 22.4534 1.89651C21.6605 2.41777 21.7257 3.18426 21.7257 3.18426L21.7048 5.82139L15.8448 5.82878C15.8165 5.82878 14.8906 5.83617 14.3734 6.85159L13.0583 12.0531C13.0583 12.0531 12.604 12.0026 11.9304 12.0026C10.4417 12.0026 7.88056 12.2515 6.77851 13.8486L0 14.0322L0.216715 14.4697H0L3.11405 20.1136H3.29383L4.70617 22.6632H7.7562L7.74265 23.4876L10.0933 24.7816V27.3041H12.6003V30.5031C12.6003 30.5031 12.4808 31.9437 13.7134 32.5832C14.946 33.2228 26.7483 40.1557 26.7483 40.1557C26.7483 40.1557 27.2163 40.5106 27.9403 40.5106C28.3429 40.5106 28.8256 40.401 29.3514 40.0584C30.8228 39.1009 41.8064 32.8408 41.8064 32.8408C41.8064 32.8408 43.3517 32.5192 43.444 30.3183V27.3349L44.2038 27.3324L46.6086 24.6842L46.5224 24.5215L48.2253 23.4741V22.6694H51.2606L52.6815 20.1025H52.865L56 14.4771L55.7931 14.4635L56 14.0359L49.6118 14.0285C49.6118 14.0285 49.3064 12.1024 44.2456 12.1012C43.8615 12.1012 43.4502 12.1123 43.0094 12.1357L41.7128 7.17815C41.7128 7.17815 41.4357 5.80167 39.6626 5.80167C39.6207 5.80167 39.5764 5.80167 39.5333 5.80413L34.241 5.80167V3.56012C34.241 3.13374 34.1856 2.64205 33.9714 2.32412C33.9714 2.32412 33.4961 1.48369 32.5824 1.48369C32.3423 1.48369 32.0714 1.54161 31.771 1.68825L30.7785 2.21075C30.7785 2.21075 29.3994 0.662978 29.2541 0.50894C28.9377 0.177451 28.5116 0 28.0794 0Z" fill="url(#paint0_linear_318_10771)"/>
<path d="M8.52199 25.6046L7.20987 26.9177L8.522 28.2309L9.83412 26.9177L8.52199 25.6046Z" fill="#C067F0"/>
<path d="M10.7732 27.6116L10.0862 28.2991L10.7732 28.9866L11.4602 28.2991L10.7732 27.6116Z" fill="#C067F0"/>
<path d="M47.5211 24.8618L46.9699 25.4133L47.5211 25.9649L48.0722 25.4133L47.5211 24.8618Z" fill="#C067F0"/>
<path d="M46.1898 25.679L45.1693 26.7002L46.1898 27.7214L47.2102 26.7002L46.1898 25.679Z" fill="#C067F0"/>
<path d="M44.0234 9.20415L42.8167 10.4119L44.0234 11.6196L45.2302 10.4119L44.0234 9.20415Z" fill="#C067F0"/>
<path d="M44.4673 23.0056V19.1498C44.4673 19.1498 44.4168 18.8774 44.7628 18.8774H50.7262L49.7744 20.6248H46.1394V22.0753L44.4673 23.0056Z" fill="url(#paint1_linear_318_10771)"/>
<path d="M42.3235 18.0864V24.0396L43.5906 23.3655V18.9638C43.5906 18.9638 43.6989 18.0112 44.9229 18.0112H51.3L52.6397 15.7585H42.3235V18.0864Z" fill="url(#paint2_linear_318_10771)"/>
<path d="M11.2113 23.0056V19.1498C11.2113 19.1498 11.2618 18.8774 10.9158 18.8774H4.95244L5.90426 20.6248H9.53917V22.0753L11.2113 23.0056Z" fill="url(#paint3_linear_318_10771)"/>
<path d="M13.5065 18.0864V24.0396L12.0511 23.3655V18.9638C12.0511 18.9638 11.9427 18.0112 10.7188 18.0112C9.49484 18.0112 4.3417 18.0112 4.3417 18.0112L3.002 15.7585H13.5065V18.0864Z" fill="url(#paint4_linear_318_10771)"/>
<path d="M35.4625 32.2111V33.436L41.2006 30.1224C41.2006 30.1224 41.405 29.9794 41.405 29.7958V27.6257H40.676L40.6698 28.115C40.6698 28.147 40.6428 28.4452 40.2216 28.7348L35.7014 32.1236C35.7014 32.1236 35.5857 32.2395 35.4637 32.2124L35.4625 32.2111Z" fill="url(#paint5_linear_318_10771)"/>
<path d="M14.4941 27.6257V29.6825C14.4941 29.6825 14.4399 30.0731 14.8389 30.1902L27.6029 37.5753C27.6029 37.5753 27.9514 37.7294 28.2481 37.5753L34.1745 34.1643C34.1745 34.1643 30.4128 34.237 30.0865 34.0731L29.6789 34.2999C29.6789 34.2999 29.3071 34.3356 29.2073 34.2358L28.7813 33.9635L28.7727 34.1717H26.8776C26.8776 34.1717 26.5329 34.4527 26.1167 34.2075H24.0493C24.0493 34.2075 21.5287 33.9721 20.668 32.2296C20.668 32.2296 20.0967 32.2937 19.9883 32.1212L15.3289 28.5832C15.3289 28.5832 15.0482 28.2863 15.0568 27.9092V27.6245H14.4953L14.4941 27.6257Z" fill="url(#paint6_linear_318_10771)"/>
<path d="M15.6047 28.8372V29.3855L17.6992 30.6055L17.2867 30.0522L15.6047 28.8372Z" fill="#D770FF"/>
<path opacity="0.7" d="M26.0773 35.3931L27.774 36.4713C27.774 36.4713 28.0289 36.5601 28.3109 36.4368L29.9055 35.43L26.0773 35.3931Z" fill="#D770FF"/>
<path d="M38.5322 30.0165L38.1345 30.6092L40.266 29.4077L40.2204 28.7349L38.5322 30.0165Z" fill="#D770FF"/>
<path d="M28.8465 35.3032L28.2658 34.722C28.1186 34.5747 27.8801 34.5747 27.7329 34.722L27.1522 35.3032C27.005 35.4504 27.005 35.6892 27.1522 35.8364L27.7329 36.4176C27.8801 36.5649 28.1186 36.5649 28.2658 36.4176L28.8465 35.8364C28.9937 35.6892 28.9937 35.4504 28.8465 35.3032Z" fill="black"/>
<path d="M27.9871 35.5666V35.0515L27.4305 35.5666H27.9871Z" fill="url(#paint7_linear_318_10771)"/>
<path d="M27.9871 35.5643L27.9834 36.1262C27.9834 36.1262 28.5326 35.5544 28.5227 35.5594C28.5129 35.5643 27.9871 35.5643 27.9871 35.5643Z" fill="#2E337B"/>
<path d="M27.9846 35.0515L28.5153 35.5617L27.9871 35.5666L27.9846 35.0515Z" fill="url(#paint8_linear_318_10771)"/>
<path d="M27.4293 35.5765L27.976 36.1212L27.9883 35.5642H27.4293V35.5765Z" fill="#26296E"/>
<path d="M23.4163 6.78759C23.4163 6.78759 23.9126 7.46166 25.7411 7.59105C27.5696 7.72044 29.9289 7.64527 30.249 7.59105C30.5692 7.53683 32.33 7.37293 32.4925 6.78759V3.47394L30.1813 4.5904L28.0683 2.06665L25.8051 4.64585L23.4176 3.54295V6.78882L23.4163 6.78759Z" fill="url(#paint9_linear_318_10771)"/>
<path d="M23.4163 6.40303C23.4163 6.40303 25.3816 7.75733 28.4611 6.81092C31.5407 5.86452 32.2032 3.6168 32.2032 3.6168L32.4938 3.47632V6.78997C32.4938 6.78997 32.4938 7.51826 29.2911 7.64026H26.7545C26.7545 7.64026 24.2118 7.63287 23.4163 6.90581V6.4018V6.40303Z" fill="url(#paint10_linear_318_10771)"/>
<path d="M28.8464 5.414L28.2656 4.8328C28.1185 4.68554 27.8799 4.68554 27.7328 4.8328L27.152 5.414C27.0049 5.56126 27.0049 5.80002 27.152 5.94728L27.7328 6.52848C27.8799 6.67574 28.1185 6.67574 28.2656 6.52848L28.8464 5.94728C28.9935 5.80002 28.9935 5.56126 28.8464 5.414Z" fill="black"/>
<path d="M27.9871 5.67746V5.16235L27.4305 5.67746H27.9871Z" fill="url(#paint11_linear_318_10771)"/>
<path d="M27.9871 5.6761L27.9834 6.23803C27.9834 6.23803 28.5325 5.66625 28.5227 5.67117C28.5128 5.6761 27.9871 5.6761 27.9871 5.6761Z" fill="#2E337B"/>
<path d="M27.9846 5.16235L28.5153 5.67253L27.9871 5.67746L27.9846 5.16235Z" fill="url(#paint12_linear_318_10771)"/>
<path d="M27.4293 5.68712L27.976 6.23179L27.9883 5.67603H27.4293V5.68712Z" fill="#26296E"/>
<path d="M25.3092 5.18793L25.0054 4.88383C24.8582 4.73657 24.6197 4.73657 24.4725 4.88383L24.1686 5.18793C24.0215 5.33519 24.0215 5.57395 24.1686 5.72121L24.4725 6.02532C24.6197 6.17258 24.8582 6.17258 25.0054 6.02532L25.3092 5.72121C25.4564 5.57395 25.4564 5.33519 25.3092 5.18793Z" fill="black"/>
<path d="M24.7289 5.45434V5.06616L24.3103 5.45434H24.7289Z" fill="url(#paint13_linear_318_10771)"/>
<path d="M24.7289 5.45197L24.7253 5.87342C24.7253 5.87342 25.1378 5.44335 25.1316 5.44705C25.1254 5.45074 24.7289 5.45074 24.7289 5.45074V5.45197Z" fill="#2E337B"/>
<path d="M24.7277 5.06616L25.1267 5.44941L24.7289 5.45434L24.7277 5.06616Z" fill="url(#paint14_linear_318_10771)"/>
<path d="M24.3103 5.46053L24.7216 5.86965L24.7302 5.4519H24.3103V5.46053Z" fill="#26296E"/>
<path d="M31.7759 5.18867L31.472 4.88456C31.3249 4.7373 31.0863 4.7373 30.9392 4.88456L30.6353 5.18867C30.4881 5.33593 30.4881 5.57468 30.6353 5.72194L30.9392 6.02605C31.0863 6.17331 31.3249 6.17331 31.472 6.02605L31.7759 5.72194C31.923 5.57468 31.923 5.33593 31.7759 5.18867Z" fill="black"/>
<path d="M31.1959 5.45434V5.06616L30.7773 5.45434H31.1959Z" fill="url(#paint15_linear_318_10771)"/>
<path d="M31.1959 5.45173L31.1922 5.87318C31.1922 5.87318 31.6047 5.4431 31.5986 5.4468C31.5924 5.4505 31.1959 5.4505 31.1959 5.4505V5.45173Z" fill="#2E337B"/>
<path d="M31.1947 5.06616L31.5937 5.44941L31.1959 5.45434L31.1947 5.06616Z" fill="url(#paint16_linear_318_10771)"/>
<path d="M30.7773 5.46029L31.1885 5.86941L31.1972 5.45166H30.7773V5.46029Z" fill="#26296E"/>
<path d="M39.963 14.8333V16.4008C39.963 16.5696 39.9926 16.821 40.0849 16.959C40.9235 18.2024 46.4214 18.7187 48.7425 16.9183C48.8718 16.8185 48.8471 16.5844 48.8471 16.418V14.4328C48.8471 14.4328 48.9062 13.4704 46.286 13.0465C43.7753 12.6398 40.7696 13.0341 40.0443 14.4648C39.9864 14.5782 39.963 14.7064 39.963 14.8345V14.8333Z" fill="black"/>
<path d="M44.4205 15.1451C45.5031 15.1451 46.3808 14.963 46.3808 14.7384C46.3808 14.5139 45.5031 14.3318 44.4205 14.3318C43.3379 14.3318 42.4602 14.5139 42.4602 14.7384C42.4602 14.963 43.3379 15.1451 44.4205 15.1451Z" fill="url(#paint17_linear_318_10771)"/>
<path d="M40.559 15.2583C40.559 15.2583 40.7757 15.5775 41.5022 15.8363V17.1154C41.5022 17.1154 40.6477 16.9675 40.559 16.514V15.2571V15.2583Z" fill="#C2C2C2"/>
<path d="M41.7239 15.9202C41.7239 15.9202 42.9207 16.3256 44.3121 16.2812V17.484C44.3121 17.484 42.5649 17.5283 41.7559 17.1364L41.7239 15.9202Z" fill="#432D7D"/>
<path d="M44.5128 16.2652V17.4618C44.5128 17.4618 45.9584 17.6084 47.0913 17.1549V15.9214C47.0913 15.9214 45.8784 16.3071 44.5128 16.2664V16.2652Z" fill="#C2C2C2"/>
<path d="M47.3092 15.834V17.0675C47.3092 17.0675 48.0616 16.9677 48.2389 16.4957V15.2893C48.2389 15.2893 47.7747 15.7514 47.3092 15.834Z" fill="#432D7D"/>
<path d="M40.5972 14.8652C40.5972 14.8652 41.187 15.3557 41.6032 15.4185L42.3913 15.1782C42.3913 15.1782 41.8839 15.0057 41.8926 14.8652H40.596H40.5972Z" fill="#E2E2E2"/>
<path d="M40.6243 14.6546C40.6243 14.6546 40.8151 14.2689 41.5576 14.1062L42.3235 14.2923C42.3235 14.2923 41.9566 14.4833 41.8569 14.6546H40.6243Z" fill="url(#paint18_linear_318_10771)"/>
<path d="M42.1019 13.9793C42.1019 13.9793 43.3529 13.6798 44.2727 13.7932V14.1062C44.2727 14.1062 43.0944 14.1148 42.9306 14.2331L42.1007 13.9793H42.1019Z" fill="#E2E2E2"/>
<path d="M44.5129 13.7673V14.1062C44.5129 14.1062 45.5829 14.1062 45.972 14.2331C45.972 14.2331 46.4978 13.9916 46.6788 14.0002C46.6788 14.0002 46.0717 13.8092 44.5116 13.7673H44.5129Z" fill="url(#paint19_linear_318_10771)"/>
<path d="M46.3808 14.3009C46.3808 14.3009 46.8204 14.4599 46.898 14.6546H48.1576C48.1576 14.6546 47.8461 14.174 47.1602 14.1062L46.3808 14.3009Z" fill="#E2E2E2"/>
<path d="M46.925 14.8999C46.925 14.8999 46.8031 15.1131 46.4214 15.1772L47.1602 15.4544C47.1602 15.4544 48.0665 15.2462 48.1576 14.9011H46.925V14.8999Z" fill="url(#paint20_linear_318_10771)"/>
<path d="M44.5128 15.399V15.76C44.5128 15.76 46.0791 15.76 46.7219 15.5518L45.9289 15.2905C45.9289 15.2905 44.6126 15.468 44.5128 15.399Z" fill="#E2E2E2"/>
<path d="M42.8025 15.2571L42.0477 15.5565C42.0477 15.5565 43.5807 15.7352 44.2727 15.7266V15.3791C44.2727 15.3791 43.4207 15.4197 42.8025 15.2571Z" fill="url(#paint21_linear_318_10771)"/>
<path d="M15.7845 7.5083H23.2169L23.2735 7.6303C23.3375 7.69438 24.0234 8.27479 27.7679 8.28835H27.8824C31.5062 8.28835 32.2573 7.64016 32.3029 7.59703L32.3706 7.5083H39.8559L42.145 16.0814L13.578 16.1677L15.7845 7.5083Z" fill="#D2D0D4"/>
<path d="M39.6675 7.75492L41.8248 15.8363L13.8956 15.9201L15.9766 7.75492H23.0605C23.0605 7.75492 23.4163 8.51894 27.7679 8.53496C27.8061 8.53496 27.8442 8.53496 27.8824 8.53496C31.8966 8.53496 32.4925 7.75492 32.4925 7.75492H39.6675ZM40.0456 7.262H32.2487L32.1219 7.42836C31.8584 7.64648 30.6554 8.04204 27.8824 8.04204H27.7691C24.4445 8.02972 23.6195 7.5787 23.4742 7.47642L23.3745 7.26076H15.5937L15.4988 7.63169L13.4179 15.7969L13.2603 16.4131L13.8956 16.4106L41.8248 16.3268L42.4639 16.3243L42.2989 15.7057L40.1416 7.62429L40.0443 7.2583L40.0456 7.262Z" fill="black"/>
<path d="M16.6538 9.1967L15.2316 15.2978L40.3005 15.2153L40.2143 14.8727L38.8672 9.04883L16.6538 9.1967Z" fill="#433D52"/>
<path d="M15.8793 16.0558L42.1351 15.8611V17.7625L15.8793 17.8414V16.0558Z" fill="#8E8C94"/>
<path d="M41.8889 16.1099V17.5172L16.1256 17.5936V16.2997L41.8889 16.1099ZM42.3814 15.6133L41.8852 15.617L16.1219 15.8068L15.6331 15.8105V18.0878H16.1268L41.8901 18.0089H42.3814V15.6121V15.6133Z" fill="black"/>
<path d="M30.8228 15.2425H24.8915V14.7225C24.8915 14.619 24.9752 14.5352 25.0787 14.5352H30.6357C30.7391 14.5352 30.8228 14.619 30.8228 14.7225V15.2425Z" fill="#2B2638"/>
<path d="M38.7219 9.09949C38.7958 9.09949 38.8598 9.15001 38.877 9.22272L40.2857 15.1723H15.2538L16.7056 9.31514C16.7376 9.18821 16.8509 9.09949 16.9814 9.09949H38.7219ZM38.7219 8.85303H16.9814C16.7376 8.85303 16.5258 9.01939 16.4667 9.25599L14.9398 15.4187H40.5984L39.1184 9.16603C39.0753 8.98242 38.9115 8.85303 38.7231 8.85303H38.7219Z" fill="black"/>
<path d="M16.6883 9.32L38.9337 9.33356L38.8659 9.0415H38.5864H16.7967L16.6883 9.32Z" fill="#25212E"/>
<path d="M38.7219 9.09949C38.7958 9.09949 38.8598 9.15001 38.877 9.22272L40.2857 15.1723H15.2538L16.7056 9.31514C16.7376 9.18821 16.8509 9.09949 16.9814 9.09949H38.7219ZM38.7219 8.85303H16.9814C16.7376 8.85303 16.5258 9.01939 16.4667 9.25599L14.9398 15.4187H40.5984L39.1184 9.16603C39.0753 8.98242 38.9115 8.85303 38.7231 8.85303H38.7219Z" fill="black"/>
<path d="M30.3599 10.5719H25.2794C25.2055 10.5719 25.1451 10.5115 25.1451 10.4376V9.31494H30.4941V10.4376C30.4941 10.5115 30.4337 10.5719 30.3599 10.5719Z" fill="#2B2638"/>
<path d="M30.4522 11.0525H25.2227C25.1248 11.0525 25.0454 11.1319 25.0454 11.2299V11.9952C25.0454 12.0932 25.1248 12.1727 25.2227 12.1727H30.4522C30.5501 12.1727 30.6295 12.0932 30.6295 11.9952V11.2299C30.6295 11.1319 30.5501 11.0525 30.4522 11.0525Z" fill="#2B2638"/>
<path d="M35.827 17.7119C35.827 17.7119 36.6323 17.9978 36.833 18.1986H37.5878V17.6885L35.827 17.7119Z" fill="#4A4754"/>
<path d="M28.3134 17.6885V18.1986H28.7148L29.1285 17.6885H28.3134Z" fill="#4A4754"/>
<path d="M29.408 17.2327H28.3134V17.3756H29.408V17.2327Z" fill="#8E8C94"/>
<path d="M21.1445 17.6885L21.6925 18.1986H23.9224V17.6885H21.1445Z" fill="#4A4754"/>
<path d="M43.0402 15.6774L41.9591 15.6096L39.7156 7.25586H40.4753L43.0402 15.6774Z" fill="black"/>
<path d="M42.0022 15.7847V18.004H42.8616L42.9761 15.7847H42.0022Z" fill="black"/>
<path d="M7.47791 14.8333V16.4008C7.47791 16.5696 7.50747 16.821 7.59982 16.959C8.43836 18.2024 13.9363 18.7187 16.2573 16.9183C16.3866 16.8185 16.362 16.5844 16.362 16.418V14.4328C16.362 14.4328 16.4211 13.4704 13.8008 13.0465C11.2901 12.6398 8.28444 13.0341 7.55918 14.4648C7.50131 14.5782 7.47791 14.7064 7.47791 14.8345V14.8333Z" fill="black"/>
<path d="M11.9354 15.1451C13.0928 15.1451 14.0311 14.963 14.0311 14.7384C14.0311 14.5139 13.0928 14.3318 11.9354 14.3318C10.7779 14.3318 9.83962 14.5139 9.83962 14.7384C9.83962 14.963 10.7779 15.1451 11.9354 15.1451Z" fill="url(#paint22_linear_318_10771)"/>
<path d="M8.07388 15.2583C8.07388 15.2583 8.2906 15.5775 9.01708 15.8363V17.1154C9.01708 17.1154 8.16254 16.9675 8.07388 16.514V15.2571V15.2583Z" fill="#C2C2C2"/>
<path d="M9.23872 15.9202C9.23872 15.9202 10.4356 16.3256 11.827 16.2812V17.484C11.827 17.484 10.0797 17.5283 9.27074 17.1364L9.23872 15.9202Z" fill="#432D7D"/>
<path d="M12.0289 16.2652V17.4618C12.0289 17.4618 13.4745 17.6084 14.6074 17.1549V15.9214C14.6074 15.9214 13.3945 16.3071 12.0289 16.2664V16.2652Z" fill="#C2C2C2"/>
<path d="M14.8253 15.834V17.0675C14.8253 17.0675 15.5776 16.9677 15.755 16.4957V15.2893C15.755 15.2893 15.2907 15.7514 14.8253 15.834Z" fill="#432D7D"/>
<path d="M8.11205 14.8652C8.11205 14.8652 8.70186 15.3557 9.11805 15.4185L9.90611 15.1782C9.90611 15.1782 9.3988 15.0057 9.40742 14.8652H8.11082H8.11205Z" fill="#E2E2E2"/>
<path d="M8.13914 14.6546C8.13914 14.6546 8.33 14.2689 9.0725 14.1062L9.83839 14.2923C9.83839 14.2923 9.47145 14.4833 9.37171 14.6546H8.13914Z" fill="url(#paint23_linear_318_10771)"/>
<path d="M9.61674 13.9793C9.61674 13.9793 10.8678 13.6798 11.7876 13.7932V14.1062C11.7876 14.1062 10.6092 14.1148 10.4454 14.2331L9.61551 13.9793H9.61674Z" fill="#E2E2E2"/>
<path d="M12.0289 13.7673V14.1062C12.0289 14.1062 13.099 14.1062 13.4881 14.2331C13.4881 14.2331 14.0139 13.9916 14.1949 14.0002C14.1949 14.0002 13.5878 13.8092 12.0277 13.7673H12.0289Z" fill="url(#paint24_linear_318_10771)"/>
<path d="M13.8956 14.3009C13.8956 14.3009 14.3352 14.4599 14.4128 14.6546H15.6725C15.6725 14.6546 15.3609 14.174 14.6751 14.1062L13.8956 14.3009Z" fill="#E2E2E2"/>
<path d="M14.4399 14.8999C14.4399 14.8999 14.318 15.1131 13.9363 15.1772L14.6751 15.4544C14.6751 15.4544 15.5813 15.2462 15.6725 14.9011H14.4399V14.8999Z" fill="url(#paint25_linear_318_10771)"/>
<path d="M12.0289 15.399V15.76C12.0289 15.76 13.5952 15.76 14.238 15.5518L13.445 15.2905C13.445 15.2905 12.1287 15.468 12.0289 15.399Z" fill="#E2E2E2"/>
<path d="M10.3174 15.2571L9.56257 15.5565C9.56257 15.5565 11.0956 15.7352 11.7876 15.7266V15.3791C11.7876 15.3791 10.9355 15.4197 10.3174 15.2571Z" fill="url(#paint26_linear_318_10771)"/>
<path d="M30.6135 13.8756H25.0392C24.9531 13.8756 24.8841 13.8004 24.8927 13.7142L24.9703 12.8577C24.9777 12.7813 25.0405 12.7234 25.1168 12.7234H30.6135C30.6948 12.7234 30.7613 12.7899 30.7613 12.8713V13.7277C30.7613 13.809 30.6948 13.8756 30.6135 13.8756Z" fill="#D7D6D9"/>
<path d="M27.1621 12.2761H25.5182C25.285 12.2761 25.0959 12.4654 25.0959 12.6988V13.3815C25.0959 13.6149 25.285 13.8042 25.5182 13.8042H27.1621C27.3953 13.8042 27.5844 13.6149 27.5844 13.3815V12.6988C27.5844 12.4654 27.3953 12.2761 27.1621 12.2761Z" fill="black"/>
<path d="M25.3877 12.801H27.2778V13.4159C27.2778 13.4948 27.2138 13.5589 27.135 13.5589H25.5306C25.4517 13.5589 25.3877 13.4948 25.3877 13.4159V12.801Z" fill="#0A0517"/>
<path d="M27.0759 12.6001H25.5897C25.4781 12.6001 25.3877 12.6906 25.3877 12.8022C25.3877 12.9138 25.4781 13.0043 25.5897 13.0043H27.0759C27.1874 13.0043 27.2778 12.9138 27.2778 12.8022C27.2778 12.6906 27.1874 12.6001 27.0759 12.6001Z" fill="#2B2638"/>
<path d="M30.1813 12.2761H28.5375C28.3042 12.2761 28.1151 12.4654 28.1151 12.6988V13.3815C28.1151 13.6149 28.3042 13.8042 28.5375 13.8042H30.1813C30.4146 13.8042 30.6037 13.6149 30.6037 13.3815V12.6988C30.6037 12.4654 30.4146 12.2761 30.1813 12.2761Z" fill="black"/>
<path d="M28.407 12.801H30.2971V13.4159C30.2971 13.4948 30.233 13.5589 30.1542 13.5589H28.5498C28.471 13.5589 28.407 13.4948 28.407 13.4159V12.801Z" fill="#0A0517"/>
<path d="M30.0951 12.6001H28.6089C28.4974 12.6001 28.407 12.6906 28.407 12.8022C28.407 12.9138 28.4974 13.0043 28.6089 13.0043H30.0951C30.2067 13.0043 30.2971 12.9138 30.2971 12.8022C30.2971 12.6906 30.2067 12.6001 30.0951 12.6001Z" fill="#2B2638"/>
<path d="M35.1473 13.9999H31.8412C31.7057 13.9999 31.5949 13.8903 31.5949 13.7535V12.0739C31.5949 11.9383 31.7045 11.8274 31.8412 11.8274H34.954C35.0783 11.8274 35.1842 11.921 35.1978 12.0455L35.3911 13.7251C35.4083 13.8718 35.2938 13.9987 35.1473 13.9987V13.9999Z" fill="#D7D6D9"/>
<path d="M31.8128 12.2082C31.8128 12.0837 31.8559 11.9617 31.9384 11.868C32.1785 11.6006 32.692 11.3172 33.6438 11.3246C34.4947 11.3308 34.922 11.7732 35.0919 12.0172C35.1535 12.1046 35.1842 12.2082 35.1842 12.3141V12.987C35.1842 13.0461 35.1756 13.1065 35.1547 13.162C34.7754 14.1392 33.4936 14.0665 33.4936 14.0665C32.33 14.0554 31.9557 13.4503 31.8498 13.1965C31.8239 13.1349 31.8128 13.0695 31.8128 13.003V12.2094V12.2082Z" fill="black"/>
<path d="M32.0739 12.4743V12.8576C32.0739 12.9747 32.1096 13.0893 32.1773 13.1841C32.3435 13.4146 32.7437 13.7707 33.6241 13.7387C33.6241 13.7387 34.4959 13.7091 34.8074 13.2199C34.8629 13.1336 34.8887 13.0301 34.8887 12.9278V12.4719C34.8887 12.3499 34.8505 12.2316 34.7767 12.1342C34.6043 11.9075 34.1782 11.6265 33.3791 11.6487C32.6625 11.6684 32.3201 11.9481 32.1761 12.1478C32.1084 12.2427 32.0726 12.3573 32.0726 12.4731L32.0739 12.4743Z" fill="#432D7D"/>
<path d="M33.4813 13.2679C34.2586 13.2679 34.8887 12.9054 34.8887 12.4583C34.8887 12.0112 34.2586 11.6487 33.4813 11.6487C32.704 11.6487 32.0739 12.0112 32.0739 12.4583C32.0739 12.9054 32.704 13.2679 33.4813 13.2679Z" fill="url(#paint27_linear_318_10771)"/>
<path d="M33.4948 12.8343C34.0035 12.8343 34.4159 12.6528 34.4159 12.4289C34.4159 12.205 34.0035 12.0234 33.4948 12.0234C32.9862 12.0234 32.5738 12.205 32.5738 12.4289C32.5738 12.6528 32.9862 12.8343 33.4948 12.8343Z" fill="url(#paint28_linear_318_10771)"/>
<path d="M35.9341 11.8286H35.6755C35.6755 11.8286 35.4711 11.8989 35.4896 12.1355C35.5081 12.3721 35.7112 13.7917 35.7112 13.7917C35.7112 13.7917 35.7186 14.0603 36.0437 14.0529H39.1836C39.1836 14.0529 39.4373 14.0221 39.4508 13.7276L39.1553 12.5717L35.9341 11.8274V11.8286Z" fill="#D7D6D9"/>
<path d="M35.7827 12.196C35.7827 12.0715 35.8258 11.9495 35.9083 11.8558C36.1484 11.5884 36.6618 11.305 37.6137 11.3124C38.4645 11.3186 38.8918 11.761 39.0617 12.0049C39.1233 12.0924 39.1541 12.196 39.1541 12.3019V12.9748C39.1541 13.0339 39.1454 13.0943 39.1245 13.1498C38.7453 14.127 37.4634 14.0543 37.4634 14.0543C36.2998 14.0432 35.9255 13.4381 35.8196 13.1843C35.7937 13.1226 35.7827 13.0573 35.7827 12.9908V12.1972V12.196Z" fill="black"/>
<path d="M36.0437 12.4621V12.8454C36.0437 12.9624 36.0794 13.077 36.1471 13.1719C36.3134 13.4024 36.7136 13.7585 37.594 13.7265C37.594 13.7265 38.4658 13.6969 38.7773 13.2077C38.8327 13.1214 38.8585 13.0179 38.8585 12.9156V12.4597C38.8585 12.3377 38.8204 12.2194 38.7465 12.122C38.5741 11.8953 38.1481 11.6143 37.3489 11.6365C36.6323 11.6562 36.29 11.9359 36.1459 12.1356C36.0782 12.2305 36.0425 12.3451 36.0425 12.4609L36.0437 12.4621Z" fill="#432D7D"/>
<path d="M37.4499 13.2557C38.2272 13.2557 38.8573 12.8932 38.8573 12.4461C38.8573 11.999 38.2272 11.6365 37.4499 11.6365C36.6726 11.6365 36.0425 11.999 36.0425 12.4461C36.0425 12.8932 36.6726 13.2557 37.4499 13.2557Z" fill="url(#paint29_linear_318_10771)"/>
<path d="M37.4634 12.8221C37.9721 12.8221 38.3845 12.6406 38.3845 12.4167C38.3845 12.1927 37.9721 12.0112 37.4634 12.0112C36.9548 12.0112 36.5424 12.1927 36.5424 12.4167C36.5424 12.6406 36.9548 12.8221 37.4634 12.8221Z" fill="url(#paint30_linear_318_10771)"/>
<path d="M17.8408 13.0402H23.2661C23.2661 13.0402 23.5616 13.0402 23.7229 12.7198C23.7414 12.6828 23.7488 12.6409 23.7488 12.6002V11.7401C23.7488 11.7068 23.7439 11.6748 23.7328 11.644C23.686 11.522 23.5099 11.2669 22.8549 11.2743H22.286C22.1161 11.2743 21.9843 11.1264 22.004 10.9576L22.0212 10.8048C22.0212 10.8048 22.0902 10.4092 21.5225 10.461C21.5004 10.4634 21.477 10.4684 21.4561 10.4758L18.7385 11.3963C18.7114 11.4061 18.6831 11.4111 18.6535 11.4111L17.9123 11.4271C17.7867 11.4296 17.6709 11.5134 17.6438 11.6366C17.6438 11.6378 17.6438 11.639 17.6438 11.6403L17.4567 12.4844C17.4493 12.5164 17.4481 12.5485 17.4517 12.5818C17.469 12.7062 17.5404 13.0057 17.8408 13.0389V13.0402Z" fill="#D7D6D9"/>
<path d="M17.8421 11.4393C17.8421 11.4393 17.8753 10.8712 18.2841 10.8392H19.6164L19.694 10.2674C19.694 10.2674 19.7851 9.809 20.2284 9.83241H21.5977C21.5977 9.83241 21.9486 9.90265 21.924 10.2132V10.8577H23.1873C23.1873 10.8577 23.5986 10.9797 23.5506 11.4282L17.8433 11.4393H17.8421Z" fill="black"/>
<path d="M19.2446 13.0401V13.8399C19.2446 13.8399 19.2791 14.1701 19.6152 14.2207H21.2775C21.2775 14.2207 21.6211 14.1258 21.7023 13.8042V12.8232H19.2852L19.2446 13.0389V13.0401Z" fill="#D7D6D9"/>
<path d="M17.8421 11.4393L17.6611 12.4572C17.6488 12.5508 17.6734 12.647 17.7362 12.7184C17.8076 12.7998 17.9307 12.886 18.1364 12.8946C18.5402 12.9131 19.3148 12.8946 19.3148 12.8946V13.6476C19.3148 13.6476 19.401 13.9212 19.6731 13.9396H21.2344C21.2344 13.9396 21.5016 13.8879 21.5681 13.634V12.9218H23.0346C23.2994 12.9218 23.4791 12.7677 23.5099 12.525L23.5506 11.4294L17.8433 11.4405L17.8421 11.4393Z" fill="black"/>
<path d="M20.1865 13.305C19.9748 13.305 19.8036 13.305 19.7654 13.305C19.6669 13.3025 19.5733 13.2446 19.5081 13.146C19.4637 13.077 19.4477 12.9944 19.4638 12.9119C19.5192 12.6149 19.5573 12.3931 19.5647 12.3204C19.566 12.3068 19.5647 12.2969 19.5647 12.2908C19.428 12.2895 18.9651 12.2858 18.6129 12.2858C18.2878 12.2858 18.2189 12.2895 18.2041 12.2908H18.1819C18.113 12.2908 18.0145 12.26 17.9418 12.1084C17.9 12.0234 17.8938 11.926 17.9246 11.8361L18.1388 11.1866C18.1708 11.0917 18.2583 11.0277 18.3592 11.0277L19.6829 11.0474C19.7716 11.0474 19.8085 10.9932 19.8196 10.9685L19.9058 10.3031C19.9218 10.1552 20.0203 10.0431 20.1471 10.0332H21.4425C21.5509 10.0332 21.6149 10.0776 21.6481 10.1145C21.7159 10.1897 21.7097 10.2809 21.7085 10.2981L21.6408 10.9919C21.6383 11.0129 21.6432 11.0203 21.6432 11.0203C21.6469 11.0227 21.6617 11.0277 21.6728 11.0277H23.0285C23.1147 11.0277 23.1984 11.0646 23.271 11.1336C23.3289 11.1891 23.3622 11.2692 23.3622 11.353V11.9913C23.3523 12.0542 23.3314 12.1084 23.2981 12.154C23.2464 12.2242 23.1602 12.2649 23.0691 12.2649H21.5743C21.5312 12.2649 21.5028 12.276 21.4893 12.2969C21.4893 12.2969 21.4868 12.3043 21.4868 12.3142V13.0092C21.4967 13.1053 21.4561 13.1756 21.4203 13.215C21.3378 13.305 21.2172 13.3099 21.1938 13.3099C21.1704 13.3099 20.604 13.3099 20.1915 13.3099L20.1865 13.305Z" fill="#2C2738"/>
<path d="M20.1558 10.1527H21.4413C21.5977 10.1527 21.5841 10.2821 21.5841 10.2821L21.5164 10.9759C21.5016 11.1398 21.6481 11.1459 21.6703 11.1459C21.6715 11.1459 21.6728 11.1459 21.6728 11.1459H23.026C23.0925 11.1459 23.1467 11.1829 23.1836 11.2174C23.2193 11.2507 23.2366 11.2987 23.2366 11.3468V11.9691C23.2304 12.0159 23.2144 12.0492 23.1972 12.0739C23.1664 12.1145 23.1171 12.1355 23.0666 12.1355H21.5718C21.4634 12.1355 21.4093 12.1835 21.3834 12.223C21.3674 12.2476 21.36 12.2784 21.36 12.308V13.003C21.3772 13.1792 21.195 13.1805 21.1901 13.1805C21.1901 13.1805 20.6089 13.1805 20.1878 13.1805C19.9772 13.1805 19.8073 13.1805 19.7691 13.1805C19.7039 13.1792 19.6485 13.1324 19.6127 13.077C19.5844 13.0338 19.5758 12.9821 19.5857 12.9328C19.614 12.7837 19.6768 12.4399 19.6879 12.3302C19.7014 12.1872 19.6066 12.1663 19.6066 12.1663C19.6066 12.1663 19.0328 12.1614 18.6129 12.1614C18.4036 12.1614 18.2324 12.1626 18.1918 12.1663C18.1881 12.1663 18.1856 12.1663 18.1819 12.1663C18.1216 12.1663 18.0797 12.1084 18.0514 12.0517C18.0243 11.995 18.0206 11.9309 18.0403 11.8718L18.2546 11.2223C18.2694 11.178 18.3112 11.1472 18.358 11.1472C18.358 11.1472 18.358 11.1472 18.3592 11.1472L19.6805 11.1669C19.8849 11.1669 19.939 10.9968 19.939 10.9968L20.0277 10.3166C20.0363 10.2328 20.0868 10.1589 20.157 10.1527M20.1471 9.90625H20.1373C19.9514 9.92227 19.8048 10.08 19.7827 10.2907L19.7014 10.918C19.7014 10.918 19.6915 10.9204 19.6817 10.9204L18.3642 10.9007C18.2053 10.9007 18.0699 10.9993 18.0219 11.1447L17.8076 11.7941C17.767 11.9149 17.7756 12.0455 17.831 12.1589C17.9381 12.3795 18.097 12.4127 18.1819 12.4127C18.193 12.4127 18.2053 12.4127 18.2164 12.4115C18.2275 12.4115 18.2915 12.4078 18.6129 12.4078C18.885 12.4078 19.2249 12.4103 19.428 12.4115C19.4108 12.52 19.3813 12.6888 19.3431 12.8884C19.3221 13.003 19.3431 13.1176 19.4059 13.2137C19.4933 13.3468 19.6226 13.4257 19.763 13.4282C19.7765 13.4282 19.8159 13.4282 20.1865 13.4282C20.6077 13.4282 21.1889 13.4282 21.1889 13.4282C21.2344 13.4282 21.392 13.4183 21.5065 13.2926C21.578 13.215 21.6124 13.109 21.605 12.9944V12.3832H23.0642C23.1947 12.3832 23.3178 12.3228 23.3929 12.2217C23.4397 12.1601 23.4681 12.0862 23.4791 12.0024L23.4816 11.9864V11.348C23.4816 11.231 23.4348 11.1188 23.3523 11.04C23.2563 10.9488 23.143 10.8995 23.0248 10.8995H21.77L21.8279 10.3055C21.8316 10.2698 21.8365 10.1392 21.7368 10.0282C21.6863 9.97279 21.594 9.90625 21.44 9.90625H20.1545H20.1447H20.1471Z" fill="black"/>
<path d="M20.6311 11.7893C20.7936 11.7893 20.9253 11.6956 20.9253 11.5799C20.9253 11.4642 20.7936 11.3704 20.6311 11.3704C20.4685 11.3704 20.3368 11.4642 20.3368 11.5799C20.3368 11.6956 20.4685 11.7893 20.6311 11.7893Z" fill="#0A0517"/>
<path d="M17.9751 12.3587C17.9751 12.3587 17.9369 12.5768 18.0674 12.6211H19.3862L19.4219 12.4006L17.9738 12.3574L17.9751 12.3587Z" fill="#0A0517"/>
<path d="M19.5844 13.3704C19.5844 13.3704 19.662 13.4234 19.758 13.4197C19.8541 13.416 21.1039 13.4197 21.1039 13.4197C21.1039 13.4197 21.2677 13.4234 21.3058 13.3839L21.2923 13.6033C21.2923 13.6033 21.2553 13.6612 21.1507 13.6439H19.6891C19.6891 13.6439 19.5992 13.6353 19.5992 13.5897L19.5844 13.3704Z" fill="#0A0517"/>
<path d="M21.5964 12.387V12.6027H23.1097C23.1097 12.6027 23.1775 12.5694 23.1873 12.5177V12.3538C23.1873 12.3538 23.1257 12.3895 23.0753 12.392C23.0248 12.3944 21.5977 12.3858 21.5977 12.3858L21.5964 12.387Z" fill="#0A0517"/>
<path d="M21.6925 18.1986L21.1445 18.7457L20.652 18.3982C20.6052 18.3662 20.5092 18.3169 20.3922 18.2639C19.9932 18.0852 19.6103 17.9829 19.1879 18.0975L19.002 18.148C18.8111 18.1542 18.6338 18.3772 18.5205 18.5313C18.4762 18.5917 18.4331 18.6521 18.3925 18.7075C18.2854 18.8554 18.2201 19.0304 18.2029 19.2127L18.1462 19.8092L17.4616 19.7611V18.323C17.4616 18.323 17.8704 17.5122 18.8124 17.214C19.0562 17.1228 19.3258 17.0759 19.6152 17.1055C19.6287 17.1067 19.6411 17.108 19.6546 17.1104H19.6558C20.8625 17.1696 21.5927 18.0692 21.6814 18.185C21.6875 18.1936 21.6912 18.1973 21.6912 18.1973L21.6925 18.1986Z" fill="black"/>
<path d="M27.0217 29.3941L27.8516 28.2505V27.6245H23.8128C23.8128 27.6245 21.8612 27.7194 21.3859 29.3941C20.9106 31.0688 21.8279 32.1631 21.8279 32.1631C21.8279 32.1631 22.5692 33.1699 23.8953 33.1501H27.7236V29.367L27.0229 29.3941H27.0217Z" fill="#7C7C7C"/>
<path d="M26.6006 28.7274L27.247 27.9104H24.133C24.133 27.9104 22.4337 27.829 21.8008 29.1686C21.3797 30.062 21.7257 30.7964 22.0028 31.1858C22.1395 31.3781 22.3143 31.5629 22.5175 31.6824C22.8093 31.8537 23.0777 32.0558 23.7156 32.115C23.7648 32.1199 23.8165 32.1211 23.8658 32.1211H27.4022V29.6713H24.7166L24.261 30.2493H26.0391C26.1068 30.2493 26.1721 30.2752 26.2213 30.3208C26.2792 30.3737 26.3445 30.4501 26.3482 30.5278C26.3531 30.6436 26.3506 30.9776 26.3482 31.1008C26.3482 31.1538 26.3346 31.2055 26.3051 31.2487C26.2681 31.3017 26.1979 31.3621 26.0686 31.3855H24.245C23.9692 31.3855 23.6934 31.3325 23.4447 31.2117C23.0359 31.0133 22.5877 30.5956 22.7243 29.7256C22.7243 29.7256 22.9152 28.9159 24.0025 28.7114L26.5994 28.7249L26.6006 28.7274Z" fill="#E2E2E2"/>
<path d="M33.666 29.3941L34.4959 28.2505V27.6245H30.4571C30.4571 27.6245 28.5055 27.7194 28.0302 29.3941C27.5549 31.0688 28.4722 32.1631 28.4722 32.1631C28.4722 32.1631 29.2135 33.1699 30.5396 33.1501H34.3679V29.367L33.6672 29.3941H33.666Z" fill="#7C7C7C"/>
<path d="M33.2449 28.7274L33.8913 27.9104H30.7773C30.7773 27.9104 29.078 27.829 28.4451 29.1686C28.024 30.062 28.37 30.7964 28.6471 31.1858C28.7837 31.3781 28.9586 31.5629 29.1618 31.6824C29.4536 31.8537 29.722 32.0558 30.3599 32.115C30.4091 32.1199 30.4608 32.1211 30.5101 32.1211H34.0465V29.6713H31.3609L30.9053 30.2493H32.6834C32.7511 30.2493 32.8164 30.2752 32.8656 30.3208C32.9235 30.3737 32.9888 30.4501 32.9925 30.5278C32.9974 30.6436 32.9949 30.9776 32.9925 31.1008C32.9925 31.1538 32.9789 31.2055 32.9494 31.2487C32.9124 31.3017 32.8422 31.3621 32.7129 31.3855H30.8893C30.6135 31.3855 30.3377 31.3325 30.089 31.2117C29.6802 31.0133 29.2319 30.5956 29.3686 29.7256C29.3686 29.7256 29.5595 28.9159 30.6468 28.7114L33.2436 28.7249L33.2449 28.7274Z" fill="#E2E2E2"/>
<path d="M17.2584 18.3242H14.6751V26.5301H17.2584V18.3242Z" fill="#7C7C7C"/>
<path d="M17.0146 18.5967H14.9386V25.5555H17.0146V18.5967Z" fill="#E2E2E2"/>
<path d="M16.4433 18.5967H15.5099V25.0564H16.4433V18.5967Z" fill="#C3C3C3"/>
<path d="M17.0282 22.6878L14.9066 22.2072V18.5608H17.0282V22.6878Z" fill="white"/>
<path d="M41.2818 18.3242H38.6985V26.5301H41.2818V18.3242Z" fill="#7C7C7C"/>
<path d="M41.0368 18.5967H38.9607V25.5555H41.0368V18.5967Z" fill="#E2E2E2"/>
<path d="M40.4654 19.0957H39.5321V25.0563H40.4654V19.0957Z" fill="#C3C3C3"/>
<path opacity="0.7" d="M41.0503 22.0568L38.93 22.3341V18.5608H41.0503V22.0568Z" fill="white"/>
<path d="M28.2481 20.5473L29.9227 18.3242H34.0465C34.0465 18.3242 36.487 18.551 37.3883 20.0112C37.3883 20.0112 37.972 20.6828 38.0545 21.7439C38.137 22.8049 38.0545 23.0045 38.0545 23.0045C38.0545 23.0045 37.9732 24.3834 37.094 25.177C36.2149 25.9706 35.4896 26.5609 33.9394 26.5967H28.2481V20.5461V20.5473Z" fill="#7C7C7C"/>
<path d="M30.9583 21.2029V23.6995H33.8926C33.9504 23.6995 34.0083 23.6946 34.065 23.6835C34.2927 23.6391 34.8518 23.49 35.2212 23.0513C35.5019 22.7161 35.529 22.2454 35.284 21.8819C35.0574 21.5455 34.6252 21.1893 33.8076 21.2041H30.9595L30.9583 21.2029Z" fill="black"/>
<path d="M31.9507 22.2405V22.6879H33.4911C33.5219 22.6879 33.5515 22.6879 33.581 22.6854C33.7005 22.678 33.9948 22.6509 34.1881 22.572C34.3358 22.5117 34.3494 22.4279 34.2213 22.3625C34.1031 22.3022 33.8753 22.2381 33.4456 22.2405H31.9495H31.9507Z" fill="#345BB4"/>
<path d="M28.8921 25.3029V21.7206H30.3672L30.3808 24.2653H33.0183C33.1341 24.2653 33.9332 24.2616 34.0108 24.2567C35.8565 24.0139 36.077 22.7077 36.0856 22.6522V22.6399L36.0905 22.6263C36.1016 22.5807 36.3651 21.4926 35.5869 20.6818C34.8912 19.9572 33.4875 19.9362 33.3298 19.9362H29.4302L30.1456 18.9036H33.6746C34.7496 18.9381 35.465 19.2535 35.5475 19.2917C35.7223 19.3632 38.0459 20.37 37.4758 22.6929C36.9561 24.8112 34.5846 25.2265 34.1142 25.2881C34.0379 25.298 33.9566 25.3029 33.8729 25.3029H28.8896H28.8921Z" fill="#C3C3C3"/>
<path d="M33.6758 19.1499C34.7496 19.1844 35.4502 19.5171 35.4502 19.5171C35.4502 19.5171 37.7824 20.4155 37.2381 22.6336C36.7628 24.5745 34.6141 24.9738 34.0834 25.0428C34.0145 25.0514 33.9443 25.0563 33.8741 25.0563H29.1371V21.967H30.121L30.1345 24.5117H33.0171C33.0688 24.5117 33.9812 24.5092 34.0329 24.5018C36.1127 24.2282 36.3281 22.6878 36.3281 22.6878C36.3281 22.6878 36.652 21.4358 35.7642 20.5104C35.0106 19.7254 33.586 19.6884 33.3298 19.6884C33.304 19.6884 33.2892 19.6884 33.2892 19.6884H29.9006L30.2749 19.1487H33.6758M33.6832 18.6558H30.0175L29.871 18.8677L29.4967 19.4075L28.9611 20.1814H33.304C33.304 20.1814 33.3151 20.1814 33.3311 20.1814C33.4776 20.1814 34.7853 20.1998 35.4108 20.8517C36.0905 21.5591 35.8627 22.5264 35.8529 22.5671L35.8455 22.5979L35.843 22.6201C35.8356 22.662 35.63 23.7883 33.9874 24.0113C33.8618 24.0163 33.1525 24.0187 33.0195 24.0187H30.6271L30.616 21.9645L30.6135 21.474H28.6471V25.5493H33.8766C33.9701 25.5493 34.0613 25.5431 34.1499 25.532C35.5918 25.3435 37.2861 24.5129 37.7183 22.7519C38.2281 20.6743 36.5929 19.4358 35.6435 19.0637C35.5118 19.0045 34.768 18.6915 33.6931 18.6582H33.6857L33.6832 18.6558Z" fill="#E2E2E2"/>
<path opacity="0.7" d="M30.6468 21.4641H28.5387V23.7303H30.6468V21.4641Z" fill="#F9F9F9"/>
<path opacity="0.7" d="M35.5573 23.1143C35.6164 23.1057 37.7787 22.6337 37.7787 22.6337C37.7787 22.6337 38.0459 21.3238 37.2849 20.2849C36.5239 19.2461 35.0907 18.6053 33.8359 18.5967H30.0742L28.8453 20.2393H33.5305C33.6057 20.2393 33.6795 20.2443 33.7547 20.2541C34.1314 20.3059 35.2113 20.5215 35.6127 21.3139C36.1028 22.28 35.5586 23.1143 35.5586 23.1143H35.5573Z" fill="#F9F9F9"/>
<path d="M18.2792 26.6572H20.6446V22.683L24.8348 26.3158C25.155 26.5943 25.5564 26.773 25.98 26.7952C26.4036 26.8174 26.8567 26.7003 27.1855 26.1901C27.1855 26.1901 27.4046 25.8746 27.4034 25.5456V18.4513H24.9925V22.4612L20.636 18.6743C20.3368 18.4143 19.9538 18.2603 19.5586 18.2763C19.1633 18.2923 18.7225 18.4648 18.411 19.0576C18.3235 19.2252 18.2792 19.4137 18.2792 19.6035V26.6572Z" fill="#828282"/>
<path d="M19.6115 18.1481C19.9871 18.1481 20.3503 18.2997 20.6348 18.5473L24.9912 22.3342V18.3243H27.4022V25.4187C27.4046 25.7477 27.1842 26.0631 27.1842 26.0631C26.8801 26.5364 26.4541 26.6707 26.0686 26.6707C26.0391 26.6707 26.0083 26.6707 25.9788 26.6682C25.5552 26.646 25.155 26.4673 24.8336 26.1888L20.6434 22.556V26.6571H18.278V19.4765C18.278 19.2867 18.3211 19.0982 18.4097 18.9306C18.7213 18.3366 19.1682 18.1641 19.5573 18.1493C19.5758 18.1493 19.593 18.1493 19.6115 18.1493M19.6115 17.9029C19.5906 17.9029 19.5696 17.9029 19.5487 17.9029C19.1399 17.9189 18.5735 18.0902 18.193 18.816C18.0883 19.0156 18.0329 19.2436 18.0329 19.4765V26.6571V26.9036H20.8909V23.0958L24.6735 26.3749C25.0466 26.6978 25.5059 26.89 25.9664 26.9134C25.9997 26.9147 26.0342 26.9159 26.0686 26.9159C26.6289 26.9159 27.0857 26.6682 27.3886 26.1987C27.4268 26.1432 27.6497 25.8007 27.6472 25.4162V18.3231V18.0766H24.7437V21.792L20.7948 18.36C20.4537 18.0631 20.0326 17.9004 19.6103 17.9004L19.6115 17.9029Z" fill="black"/>
<path d="M18.5821 19.5394L18.5464 25.5542H20.3146V21.8894C20.3146 21.7649 20.3725 21.6441 20.4771 21.5764C20.5584 21.5246 20.6631 21.5049 20.7776 21.6072L25.1291 25.3558C25.3939 25.5838 25.7214 25.7317 26.0699 25.7539C26.5476 25.7834 27.1054 25.5949 27.1054 24.5561L27.1461 18.7384H25.2781L25.2818 22.3884C25.2818 22.3884 25.1673 22.853 24.6846 22.4082L20.3688 18.7384C20.1607 18.5584 19.9206 18.5202 19.646 18.5363C19.4613 18.5474 19.2581 18.5942 19.0783 18.7039C18.5981 18.9959 18.5833 19.5394 18.5833 19.5394H18.5821Z" fill="#E2E2E2"/>
<path d="M23.6959 23.4334L25.5379 25.0009C25.6746 25.1167 25.8482 25.187 26.0268 25.1771C26.1622 25.1697 26.3125 25.1204 26.4245 24.9713C26.5033 24.8666 26.5378 24.7347 26.5378 24.6041V19.0957H25.8581V24.1765L23.8769 22.2984L23.6971 23.4346L23.6959 23.4334Z" fill="#C3C3C3"/>
<path d="M19.8332 23.0229H19.0808V25.055H19.8332V23.0229Z" fill="#C3C3C3"/>
<path opacity="0.8" d="M18.5649 23.0231L20.3146 23.2844V21.9621C20.3146 21.845 20.3269 21.7267 20.4057 21.6405C20.4808 21.5592 20.6298 21.4791 20.7517 21.5875L23.0863 23.638L27.1448 23.781V18.7396H25.2818L25.2609 22.4279C25.2609 22.4279 25.1316 22.8161 24.7166 22.4279L20.3922 18.7581C19.9735 18.4032 19.3418 18.4303 18.8629 18.8814C18.5883 19.2153 18.5636 19.4753 18.5636 19.4753V23.0244L18.5649 23.0231Z" fill="white"/>
<path d="M22.8413 19.0957L23.9224 20.0113V19.1499L22.8413 19.0957Z" fill="url(#paint31_linear_318_10771)"/>
<path d="M28.3146 17.4839H23.9224V18.1481H28.3146V17.4839Z" fill="black"/>
<path d="M35.4625 28.7348V30.5315L39.3141 27.6257H37.594V27.394H36.024L35.5413 27.9855V28.7274L35.4625 28.7348Z" fill="url(#paint32_linear_318_10771)"/>
<path d="M16.4433 27.6257L20.2641 30.5315C20.2641 30.5315 20.1595 29.2474 20.5202 28.7557V27.5764L16.4433 27.6257Z" fill="url(#paint33_linear_318_10771)"/>
<path d="M21.6506 24.8196V27.3051C21.6506 27.3051 22.281 26.7654 23.6626 26.6015L21.6506 24.8184V24.8196Z" fill="url(#paint34_linear_318_10771)"/>
<path d="M37.3883 26.3082L37.61 26.063V26.3624L37.3883 26.3082Z" fill="url(#paint35_linear_318_10771)"/>
<path d="M23.585 30.9258V30.5314L24.3091 29.6873C24.3091 29.6873 23.6368 29.6504 23.2858 30.0163C23.2206 30.0841 23.1738 30.142 23.1393 30.1901C23.0666 30.2924 23.0568 30.4242 23.1085 30.5376C23.1787 30.6929 23.3252 30.9135 23.5838 30.9246L23.585 30.9258Z" fill="black"/>
<path d="M30.2663 30.9258V30.5314L30.9903 29.6873C30.9903 29.6873 30.318 29.6504 29.9671 30.0163C29.9215 30.0644 29.8846 30.1075 29.855 30.1445C29.7553 30.2714 29.7405 30.444 29.8156 30.5869C29.8907 30.7298 30.0348 30.9147 30.2675 30.9246L30.2663 30.9258Z" fill="black"/>
</g>
<defs>
<linearGradient id="paint0_linear_318_10771" x1="0" y1="20.2553" x2="56" y2="20.2553" gradientUnits="userSpaceOnUse">
<stop stop-color="#C86AF5"/>
<stop offset="1" stop-color="#C86AF5"/>
</linearGradient>
<linearGradient id="paint1_linear_318_10771" x1="43.1855" y1="22.3858" x2="49.7848" y2="18.0676" gradientUnits="userSpaceOnUse">
<stop stop-color="#273B86"/>
<stop offset="1" stop-color="#3B64BE"/>
</linearGradient>
<linearGradient id="paint2_linear_318_10771" x1="39.3856" y1="21.9028" x2="50.9742" y2="14.3214" gradientUnits="userSpaceOnUse">
<stop stop-color="#273B86"/>
<stop offset="1" stop-color="#3B64BE"/>
</linearGradient>
<linearGradient id="paint3_linear_318_10771" x1="12.4956" y1="22.3858" x2="5.89501" y2="18.0676" gradientUnits="userSpaceOnUse">
<stop stop-color="#273B86"/>
<stop offset="1" stop-color="#3B64BE"/>
</linearGradient>
<linearGradient id="paint4_linear_318_10771" x1="16.4297" y1="21.9546" x2="4.70191" y2="14.282" gradientUnits="userSpaceOnUse">
<stop stop-color="#273B86"/>
<stop offset="1" stop-color="#3B64BE"/>
</linearGradient>
<linearGradient id="paint5_linear_318_10771" x1="34.411" y1="33.6455" x2="41.4051" y2="28.5416" gradientUnits="userSpaceOnUse">
<stop stop-color="#8A51CD"/>
<stop offset="1" stop-color="#6643B6"/>
</linearGradient>
<linearGradient id="paint6_linear_318_10771" x1="14.2466" y1="27.3928" x2="30.4057" y2="35.6107" gradientUnits="userSpaceOnUse">
<stop offset="0.13" stop-color="#6844B8"/>
<stop offset="0.58" stop-color="#D26EFC"/>
<stop offset="0.93" stop-color="#9A58D8"/>
</linearGradient>
<linearGradient id="paint7_linear_318_10771" x1="27.3419" y1="35.038" x2="28.2794" y2="35.7298" gradientUnits="userSpaceOnUse">
<stop stop-color="#393EAF"/>
<stop offset="1" stop-color="#6574ED"/>
</linearGradient>
<linearGradient id="paint8_linear_318_10771" x1="28.4291" y1="35.1686" x2="27.9129" y2="35.565" gradientUnits="userSpaceOnUse">
<stop stop-color="#E9ECFF"/>
<stop offset="1" stop-color="#848AEF"/>
</linearGradient>
<linearGradient id="paint9_linear_318_10771" x1="15.4779" y1="4.4376" x2="32.665" y2="5.03556" gradientUnits="userSpaceOnUse">
<stop stop-color="#BF7A4F"/>
<stop offset="0.35" stop-color="#FFEDD3"/>
<stop offset="0.57" stop-color="#F8E6D1"/>
<stop offset="0.81" stop-color="#DCB08F"/>
<stop offset="1" stop-color="#BC764C"/>
</linearGradient>
<linearGradient id="paint10_linear_318_10771" x1="22.0951" y1="5.58232" x2="32.4568" y2="5.55525" gradientUnits="userSpaceOnUse">
<stop stop-color="#C27D52"/>
<stop offset="0.43" stop-color="#FDD496"/>
<stop offset="0.65" stop-color="#DCB08F"/>
<stop offset="1" stop-color="#BC764C"/>
</linearGradient>
<linearGradient id="paint11_linear_318_10771" x1="5.97306e-05" y1="5.1488" x2="0.12338" y2="5.84132" gradientUnits="userSpaceOnUse">
<stop stop-color="#393EAF"/>
<stop offset="1" stop-color="#6574ED"/>
</linearGradient>
<linearGradient id="paint12_linear_318_10771" x1="28.4291" y1="5.27942" x2="27.9129" y2="5.67583" gradientUnits="userSpaceOnUse">
<stop stop-color="#E9ECFF"/>
<stop offset="1" stop-color="#848AEF"/>
</linearGradient>
<linearGradient id="paint13_linear_318_10771" x1="24.245" y1="5.0563" x2="24.9485" y2="5.57581" gradientUnits="userSpaceOnUse">
<stop stop-color="#393EAF"/>
<stop offset="1" stop-color="#6574ED"/>
</linearGradient>
<linearGradient id="paint14_linear_318_10771" x1="25.0614" y1="5.15489" x2="24.6733" y2="5.45281" gradientUnits="userSpaceOnUse">
<stop stop-color="#E9ECFF"/>
<stop offset="1" stop-color="#848AEF"/>
</linearGradient>
<linearGradient id="paint15_linear_318_10771" x1="30.712" y1="5.0563" x2="31.4155" y2="5.57581" gradientUnits="userSpaceOnUse">
<stop stop-color="#393EAF"/>
<stop offset="1" stop-color="#6574ED"/>
</linearGradient>
<linearGradient id="paint16_linear_318_10771" x1="31.5284" y1="5.15489" x2="31.1403" y2="5.45281" gradientUnits="userSpaceOnUse">
<stop stop-color="#E9ECFF"/>
<stop offset="1" stop-color="#848AEF"/>
</linearGradient>
<linearGradient id="paint17_linear_318_10771" x1="46.7588" y1="15.5394" x2="43.2502" y2="14.3396" gradientUnits="userSpaceOnUse">
<stop stop-color="#9054D1"/>
<stop offset="1" stop-color="#B863EB"/>
</linearGradient>
<linearGradient id="paint18_linear_318_10771" x1="40.6243" y1="14.3798" x2="42.3235" y2="14.3798" gradientUnits="userSpaceOnUse">
<stop stop-color="#9054D1"/>
<stop offset="1" stop-color="#B863EB"/>
</linearGradient>
<linearGradient id="paint19_linear_318_10771" x1="44.5129" y1="14.0002" x2="46.68" y2="14.0002" gradientUnits="userSpaceOnUse">
<stop stop-color="#9054D1"/>
<stop offset="1" stop-color="#B863EB"/>
</linearGradient>
<linearGradient id="paint20_linear_318_10771" x1="46.4214" y1="15.1759" x2="48.1576" y2="15.1759" gradientUnits="userSpaceOnUse">
<stop stop-color="#9054D1"/>
<stop offset="1" stop-color="#B863EB"/>
</linearGradient>
<linearGradient id="paint21_linear_318_10771" x1="42.0477" y1="15.4912" x2="44.2727" y2="15.4912" gradientUnits="userSpaceOnUse">
<stop stop-color="#9054D1"/>
<stop offset="1" stop-color="#B863EB"/>
</linearGradient>
<linearGradient id="paint22_linear_318_10771" x1="14.4362" y1="15.5949" x2="10.6837" y2="14.3114" gradientUnits="userSpaceOnUse">
<stop stop-color="#9054D1"/>
<stop offset="1" stop-color="#B863EB"/>
</linearGradient>
<linearGradient id="paint23_linear_318_10771" x1="8.13914" y1="14.3798" x2="9.83962" y2="14.3798" gradientUnits="userSpaceOnUse">
<stop stop-color="#9054D1"/>
<stop offset="1" stop-color="#B863EB"/>
</linearGradient>
<linearGradient id="paint24_linear_318_10771" x1="12.0289" y1="14.0002" x2="14.1949" y2="14.0002" gradientUnits="userSpaceOnUse">
<stop stop-color="#9054D1"/>
<stop offset="1" stop-color="#B863EB"/>
</linearGradient>
<linearGradient id="paint25_linear_318_10771" x1="13.9363" y1="15.1759" x2="15.6725" y2="15.1759" gradientUnits="userSpaceOnUse">
<stop stop-color="#9054D1"/>
<stop offset="1" stop-color="#B863EB"/>
</linearGradient>
<linearGradient id="paint26_linear_318_10771" x1="9.56257" y1="15.4912" x2="11.7888" y2="15.4912" gradientUnits="userSpaceOnUse">
<stop stop-color="#9054D1"/>
<stop offset="1" stop-color="#B863EB"/>
</linearGradient>
<linearGradient id="paint27_linear_318_10771" x1="31.8288" y1="12.4583" x2="34.9835" y2="12.4583" gradientUnits="userSpaceOnUse">
<stop stop-color="#D26EFC"/>
<stop offset="1" stop-color="#6844B8"/>
</linearGradient>
<linearGradient id="paint28_linear_318_10771" x1="32.2573" y1="12.4289" x2="35.183" y2="12.4289" gradientUnits="userSpaceOnUse">
<stop stop-color="#6844B8"/>
<stop offset="1" stop-color="#D26EFC"/>
</linearGradient>
<linearGradient id="paint29_linear_318_10771" x1="35.7987" y1="12.4461" x2="38.9534" y2="12.4461" gradientUnits="userSpaceOnUse">
<stop stop-color="#D26EFC"/>
<stop offset="1" stop-color="#6D46BB"/>
</linearGradient>
<linearGradient id="paint30_linear_318_10771" x1="36.2272" y1="12.4167" x2="39.1516" y2="12.4167" gradientUnits="userSpaceOnUse">
<stop stop-color="#B462E8"/>
<stop offset="1" stop-color="#C96AF6"/>
</linearGradient>
<linearGradient id="paint31_linear_318_10771" x1="21.8698" y1="19.5011" x2="23.9507" y2="19.5737" gradientUnits="userSpaceOnUse">
<stop stop-color="#273B86"/>
<stop offset="1" stop-color="#365AB1"/>
</linearGradient>
<linearGradient id="paint32_linear_318_10771" x1="35.018" y1="28.9628" x2="38.3636" y2="28.9628" gradientUnits="userSpaceOnUse">
<stop stop-color="#273B86"/>
<stop offset="1" stop-color="#365AB1"/>
</linearGradient>
<linearGradient id="paint33_linear_318_10771" x1="15.9717" y1="29.0527" x2="19.513" y2="29.0527" gradientUnits="userSpaceOnUse">
<stop stop-color="#273B86"/>
<stop offset="1" stop-color="#365AB1"/>
</linearGradient>
<linearGradient id="paint34_linear_318_10771" x1="21.4179" y1="26.063" x2="23.1664" y2="26.063" gradientUnits="userSpaceOnUse">
<stop stop-color="#273B86"/>
<stop offset="1" stop-color="#365AB1"/>
</linearGradient>
<linearGradient id="paint35_linear_318_10771" x1="37.3625" y1="26.2121" x2="37.5558" y2="26.2121" gradientUnits="userSpaceOnUse">
<stop stop-color="#273B86"/>
<stop offset="1" stop-color="#365AB1"/>
</linearGradient>
<clipPath id="clip0_318_10771">
<rect width="56" height="40.5106" fill="white"/>
</clipPath>
</defs>
</svg>
