<svg width="16" height="17" viewBox="0 0 16 17" fill="none" xmlns="http://www.w3.org/2000/svg">
<path d="M9.5 4.558C9.5 4.32133 9.624 4.10733 9.76733 3.91867C9.91467 3.72533 10 3.496 10 3.25C10 2.55933 9.32867 2 8.5 2C7.67133 2 7 2.56 7 3.25C7 3.496 7.08533 3.72533 7.23267 3.91867C7.376 4.10733 7.5 4.32133 7.5 4.558C7.50029 4.61517 7.48909 4.67181 7.46706 4.72456C7.44503 4.77731 7.41263 4.8251 7.37177 4.86508C7.33092 4.90507 7.28244 4.93643 7.22923 4.95732C7.17601 4.97821 7.11915 4.98819 7.062 4.98667C6.13444 4.95995 5.20847 4.89322 4.28667 4.78667C4.41067 5.862 4.482 6.95333 4.49667 8.058C4.49729 8.11593 4.48639 8.17342 4.4646 8.2271C4.44282 8.28079 4.41058 8.32961 4.36977 8.37074C4.32895 8.41186 4.28038 8.44446 4.22686 8.46665C4.17333 8.48885 4.11594 8.50018 4.058 8.5V8.5C3.82133 8.5 3.60733 8.376 3.41867 8.23267C3.22758 8.08341 2.99246 8.0016 2.75 8C2.05933 8 1.5 8.67133 1.5 9.5C1.5 10.3287 2.06 11 2.75 11C2.996 11 3.22533 10.9147 3.41867 10.7673C3.60733 10.624 3.82133 10.5 4.058 10.5C4.26467 10.5 4.428 10.6733 4.41267 10.88C4.32974 12.0103 4.18688 13.1355 3.98467 14.2507C4.99667 14.3773 6.02333 14.4567 7.062 14.4867C7.11915 14.4882 7.17601 14.4782 7.22923 14.4573C7.28244 14.4364 7.33092 14.4051 7.37177 14.3651C7.41263 14.3251 7.44503 14.2773 7.46706 14.2246C7.48909 14.1718 7.50029 14.1152 7.5 14.058V14.058C7.5 13.8213 7.376 13.6073 7.23267 13.4187C7.08341 13.2276 7.0016 12.9925 7 12.75C7 12.06 7.672 11.5 8.5 11.5C9.32867 11.5 10 12.06 10 12.75C10 12.996 9.91467 13.2253 9.76733 13.4187C9.624 13.6073 9.50067 13.8213 9.50067 14.058C9.50067 14.28 9.68533 14.4573 9.90733 14.4447C11.1203 14.3733 12.3283 14.2331 13.5253 14.0247C13.7065 12.9835 13.836 11.934 13.9133 10.88C13.9168 10.8313 13.9102 10.7824 13.8939 10.7363C13.8776 10.6903 13.852 10.6481 13.8186 10.6124C13.7853 10.5767 13.7449 10.5483 13.7001 10.529C13.6552 10.5097 13.6068 10.4998 13.558 10.5C13.3213 10.5 13.1073 10.624 12.9187 10.7673C12.7253 10.9147 12.496 11 12.25 11C11.56 11 11 10.3287 11 9.5C11 8.67133 11.56 8 12.25 8C12.4967 8 12.7253 8.08533 12.9187 8.23267C13.1073 8.376 13.3213 8.5 13.5587 8.5C13.6166 8.50018 13.674 8.48885 13.7275 8.46665C13.781 8.44446 13.8296 8.41186 13.8704 8.37074C13.9112 8.32961 13.9435 8.28079 13.9653 8.2271C13.9871 8.17342 13.998 8.11593 13.9973 8.058C13.9813 6.86324 13.899 5.67029 13.7507 4.48467C12.4933 4.71267 11.2107 4.86733 9.90667 4.944C9.85419 4.94691 9.80166 4.93905 9.75233 4.92091C9.703 4.90277 9.6579 4.87473 9.61981 4.83851C9.58172 4.80229 9.55144 4.75866 9.53084 4.71031C9.51023 4.66195 9.49974 4.60989 9.5 4.55733V4.55733V4.558Z" stroke="#DBDBDB" stroke-linecap="round" stroke-linejoin="round"/>
</svg>
