<svg width="16" height="16" viewBox="0 0 16 16" fill="none" xmlns="http://www.w3.org/2000/svg">
<path d="M11.0006 12.5H5.00064M11.0006 12.5C11.5311 12.5 12.0398 12.7107 12.4149 13.0858C12.7899 13.4609 13.0006 13.9696 13.0006 14.5H3.00064C3.00064 13.9696 3.21135 13.4609 3.58643 13.0858C3.9615 12.7107 4.47021 12.5 5.00064 12.5M11.0006 12.5V10.25C11.0006 9.836 10.6653 9.5 10.2506 9.5H9.66997M5.00064 12.5V10.25C5.00064 9.836 5.33664 9.5 5.75064 9.5H6.33197M9.66997 9.5H6.33197M9.66997 9.5C9.29553 8.8533 9.07175 8.13048 9.01531 7.38533M6.33197 9.5C6.70619 8.85325 6.92973 8.13043 6.98597 7.38533M3.50064 2.824C2.84597 2.91933 2.19797 3.03533 1.55664 3.17067C1.70531 4.04319 2.13903 4.84182 2.78994 5.44158C3.44085 6.04135 4.27222 6.40841 5.15397 6.48533M3.50064 2.824V3C3.50064 4.40533 4.14464 5.66 5.15397 6.48533M3.50064 2.824V1.814C4.97131 1.60667 6.47397 1.5 8.00064 1.5C9.52797 1.5 11.0306 1.60667 12.5006 1.81333V2.824M5.15397 6.48533C5.68733 6.92218 6.31424 7.23016 6.98597 7.38533M12.5006 2.824V3C12.5006 4.40533 11.8566 5.66 10.8473 6.48533M12.5006 2.824C13.1522 2.9188 13.8005 3.03442 14.4446 3.17067C14.296 4.04309 13.8624 4.84164 13.2116 5.44139C12.5608 6.04115 11.7296 6.40827 10.848 6.48533M10.848 6.48533C10.3144 6.92227 9.68728 7.23026 9.01531 7.38533M9.01531 7.38533C8.34763 7.53933 7.65365 7.53933 6.98597 7.38533" stroke="#DBDBDB" stroke-linecap="round" stroke-linejoin="round"/>
</svg>
