<svg width="64" height="64" viewBox="0 0 64 64" fill="none" xmlns="http://www.w3.org/2000/svg">
<circle cx="32" cy="32" r="32" fill="#5865F2"/>
<g clip-path="url(#clip0_1297_4032)">
<path d="M45.3718 20.7053C43.0928 19.6591 40.686 18.9177 38.2134 18.5C37.8751 19.1007 37.5713 19.7201 37.3033 20.3552C34.6745 19.9702 32.0036 19.9702 29.3748 20.3552C29.1298 19.7777 28.7622 19.0426 28.4647 18.5C25.9789 18.9096 23.5595 19.6513 21.2713 20.7053C17.2398 26.42 15.4235 33.4055 16.1606 40.3602C18.8094 42.3071 21.768 43.7924 24.9117 44.7533C25.6254 43.8021 26.2522 42.7888 26.7845 41.7254C25.7623 41.3455 24.7779 40.8709 23.8441 40.3077L24.5617 39.7477C27.2977 41.041 30.2865 41.7117 33.3128 41.7117C36.3391 41.7117 39.3278 41.041 42.0639 39.7477C42.3089 39.9402 42.5364 40.1327 42.799 40.3077C41.8512 40.8676 40.8555 41.3421 39.8236 41.7254C40.3731 42.7905 41.0175 43.8039 41.7488 44.7533C44.8925 43.7924 47.8512 42.3071 50.4999 40.3602C51.2304 33.4035 49.4079 26.4184 45.3718 20.7053ZM27.5896 36.4572C27.1549 36.4327 26.7294 36.3226 26.3374 36.1332C25.9454 35.9439 25.5946 35.679 25.3052 35.3538C25.0157 35.0286 24.7933 34.6495 24.6507 34.2381C24.5081 33.8268 24.4481 33.3914 24.4742 32.9568C24.4458 32.5217 24.5041 32.0853 24.6458 31.673C24.7876 31.2607 25.0098 30.8806 25.2997 30.5549C25.5895 30.2292 25.9412 29.9644 26.3344 29.7758C26.7275 29.5872 27.1541 29.4786 27.5896 29.4564C28.0258 29.4763 28.4536 29.5833 28.8478 29.7711C29.2421 29.9589 29.5947 30.2238 29.8851 30.5499C30.1754 30.8761 30.3975 31.2571 30.5383 31.6705C30.6791 32.0839 30.7358 32.5212 30.705 32.9568C30.7385 33.8227 30.4309 34.6672 29.8483 35.3087C29.2657 35.9502 28.4547 36.3375 27.5896 36.3872V36.4572ZM39.0885 36.4572C38.2123 36.4031 37.3931 36.0047 36.8095 35.349C36.2259 34.6932 35.9252 33.8333 35.9731 32.9568C35.9471 32.5222 36.0071 32.0868 36.1497 31.6755C36.2923 31.2642 36.5147 30.885 36.8041 30.5598C37.0935 30.2346 37.4443 29.9698 37.8363 29.7804C38.2283 29.591 38.6539 29.4809 39.0885 29.4564C39.5247 29.4763 39.9526 29.5833 40.3468 29.7711C40.741 29.9589 41.0937 30.2238 41.384 30.5499C41.6743 30.8761 41.8964 31.2571 42.0372 31.6705C42.178 32.0839 42.2347 32.5212 42.2039 32.9568C42.242 33.8239 41.936 34.6709 41.3525 35.3134C40.769 35.956 39.9552 36.3419 39.0885 36.3872V36.4572Z" fill="white"/>
</g>
<defs>
<clipPath id="clip0_1297_4032">
<rect width="35" height="26" fill="white" transform="translate(15 19)"/>
</clipPath>
</defs>
</svg>
