<svg width="141" height="27" viewBox="0 0 141 27" fill="none" xmlns="http://www.w3.org/2000/svg">
<path d="M29.8513 2.70528C27.5723 1.65915 25.1655 0.917684 22.6929 0.5C22.3546 1.10068 22.0508 1.72009 21.7828 2.35523C19.154 1.97022 16.4831 1.97022 13.8543 2.35523C13.6092 1.77766 13.2417 1.04257 12.9442 0.5C10.4584 0.909616 8.03898 1.65134 5.75077 2.70528C1.71933 8.42004 -0.0970247 15.4055 0.640127 22.3602V22.3602C3.28885 24.3071 6.24754 25.7924 9.39122 26.7533C10.1049 25.8021 10.7317 24.7888 11.264 23.7254C10.2418 23.3455 9.25741 22.8709 8.32359 22.3077L9.04118 21.7477C11.7772 23.041 14.7659 23.7117 17.7923 23.7117C20.8186 23.7117 23.8073 23.041 26.5434 21.7477C26.7884 21.9402 27.0159 22.1327 27.2785 22.3077C26.3307 22.8676 25.335 23.3421 24.3031 23.7254C24.8526 24.7905 25.4969 25.8039 26.2283 26.7533C29.372 25.7924 32.3307 24.3071 34.9794 22.3602C35.7099 15.4035 33.8874 8.41836 29.8513 2.70528V2.70528ZM12.0691 18.4572C11.6344 18.4327 11.2089 18.3226 10.8169 18.1332C10.4249 17.9439 10.0741 17.679 9.78466 17.3538C9.49523 17.0286 9.27284 16.6495 9.13024 16.2381C8.98764 15.8268 8.92764 15.3914 8.95367 14.9568C8.92527 14.5217 8.98362 14.0853 9.12533 13.673C9.26705 13.2607 9.48929 12.8806 9.77916 12.5549C10.069 12.2292 10.4207 11.9644 10.8138 11.7758C11.207 11.5872 11.6336 11.4786 12.0691 11.4564C12.5053 11.4763 12.9331 11.5833 13.3273 11.7711C13.7216 11.9589 14.0742 12.2237 14.3645 12.5499C14.6549 12.8761 14.877 13.2571 15.0178 13.6705C15.1586 14.0839 15.2153 14.5212 15.1844 14.9568C15.218 15.8227 14.9104 16.6672 14.3278 17.3087C13.7452 17.9502 12.9342 18.3375 12.0691 18.3872V18.4572ZM23.568 18.4572C22.6918 18.4031 21.8726 18.0047 21.289 17.349C20.7054 16.6932 20.4047 15.8333 20.4526 14.9568C20.4266 14.5222 20.4866 14.0868 20.6292 13.6755C20.7718 13.2642 20.9942 12.885 21.2836 12.5598C21.573 12.2346 21.9238 11.9698 22.3158 11.7804C22.7078 11.591 23.1333 11.4809 23.568 11.4564C24.0042 11.4763 24.432 11.5833 24.8263 11.7711C25.2205 11.9589 25.5732 12.2237 25.8635 12.5499C26.1538 12.8761 26.3759 13.2571 26.5167 13.6705C26.6575 14.0839 26.7142 14.5212 26.6834 14.9568C26.7215 15.8239 26.4155 16.6709 25.832 17.3134C25.2485 17.956 24.4347 18.3419 23.568 18.3872V18.4572Z" fill="white"/>
<path d="M47.0908 5.99572H54.5293C56.0884 5.95179 57.6392 6.23809 59.0798 6.83583C60.228 7.34472 61.1973 8.18601 61.8627 9.25113C62.4969 10.3059 62.8129 11.5214 62.7728 12.7516C62.8023 13.9876 62.4675 15.2049 61.8102 16.252C61.1013 17.3372 60.0831 18.1847 58.8873 18.6848C57.3346 19.3232 55.6648 19.6273 53.9867 19.5774H47.0908V5.99572ZM53.9167 15.9545C54.9275 16.0256 55.9261 15.699 56.6995 15.0444C57.0276 14.7262 57.2834 14.3411 57.4495 13.9153C57.6156 13.4894 57.6881 13.0329 57.6621 12.5765C57.6838 12.1534 57.6189 11.7302 57.4715 11.333C57.324 10.9358 57.0971 10.5728 56.8045 10.2663C56.4494 9.94962 56.0334 9.70871 55.582 9.55825C55.1306 9.40779 54.6533 9.35093 54.1792 9.39115H51.8514V15.9545H53.9167Z" fill="white"/>
<path d="M74.3768 19.3323C73.3949 19.0854 72.4565 18.69 71.594 18.1597V14.9918C72.3407 15.5669 73.1901 15.9946 74.0968 16.2519C75.0861 16.5433 76.1109 16.6964 77.1422 16.707C77.4953 16.7291 77.8487 16.6692 78.1748 16.5319C78.4199 16.4094 78.5249 16.2694 78.5249 16.0944C78.5308 15.92 78.4679 15.7503 78.3498 15.6218C78.1273 15.459 77.8694 15.3511 77.5972 15.3068L75.3045 14.7817C74.2801 14.6207 73.3184 14.1853 72.5216 13.5216C72.2414 13.2432 72.022 12.9097 71.8774 12.5421C71.7328 12.1746 71.6661 11.781 71.6815 11.3863C71.6747 10.6748 71.9373 9.98698 72.4166 9.46106C72.9771 8.86895 73.6832 8.43441 74.4644 8.20091C75.4776 7.88285 76.5353 7.72922 77.5972 7.74585C78.5881 7.73949 79.5759 7.85708 80.5376 8.09589C81.3114 8.27855 82.0544 8.57337 82.7429 8.971V11.9114C82.0958 11.5218 81.4018 11.216 80.6776 11.0013C79.889 10.7968 79.077 10.6968 78.2623 10.7037C77.0722 10.7037 76.5121 10.8962 76.5121 11.2988C76.5109 11.3911 76.5368 11.4817 76.5866 11.5595C76.6364 11.6373 76.7078 11.6987 76.7921 11.7363C77.119 11.8714 77.4593 11.9711 77.8073 12.0339L79.715 12.3664C80.7276 12.49 81.6886 12.8829 82.4979 13.5041C82.8148 13.8135 83.0605 14.1884 83.2176 14.6025C83.3748 15.0166 83.4398 15.4601 83.408 15.9019C83.4186 16.4514 83.2852 16.9941 83.0212 17.4762C82.7571 17.9582 82.3716 18.3628 81.9028 18.6497C80.5829 19.4513 79.0517 19.8357 77.5097 19.7523C76.4521 19.7422 75.3998 19.6011 74.3768 19.3323V19.3323Z" fill="white"/>
<path d="M88.0985 18.9298C87.0869 18.4548 86.2311 17.7022 85.6307 16.7595C85.08 15.8209 84.7956 14.7499 84.8081 13.6617C84.7879 12.5788 85.0861 11.5137 85.6657 10.5988C86.2838 9.66019 87.1586 8.91902 88.186 8.46351C89.4337 7.92491 90.7829 7.66222 92.1415 7.69342C93.8111 7.63328 95.4631 8.05234 96.9021 8.90107V12.4015C96.4183 12.0875 95.8944 11.8402 95.3444 11.6664C94.7339 11.4685 94.096 11.3681 93.4542 11.3689C92.4845 11.3233 91.5213 11.5475 90.6713 12.0165C90.3733 12.1885 90.1258 12.436 89.9537 12.734C89.7816 13.032 89.6911 13.37 89.6911 13.7142C89.6911 14.0583 89.7816 14.3964 89.9537 14.6944C90.1258 14.9924 90.3733 15.2398 90.6713 15.4119C91.533 15.8997 92.5186 16.1248 93.5067 16.0595C94.1401 16.0595 94.7704 15.9711 95.3794 15.7969C95.9349 15.6316 96.4693 15.4026 96.9721 15.1143V18.4923C95.4968 19.3512 93.8133 19.7872 92.1065 19.7524C90.7255 19.7848 89.3551 19.5035 88.0985 18.9298V18.9298Z" fill="white"/>
<path d="M101.89 18.9297C100.859 18.455 99.985 17.6961 99.3701 16.742C98.7954 15.8055 98.498 14.7252 98.5125 13.6266C98.4985 12.542 98.8028 11.4772 99.3876 10.5637C100.005 9.63996 100.873 8.91141 101.89 8.46344C104.397 7.43732 107.207 7.43732 109.714 8.46344C110.734 8.90632 111.603 9.63597 112.217 10.5637C112.793 11.4803 113.09 12.5442 113.074 13.6266C113.081 14.7243 112.784 15.8025 112.217 16.742C111.604 17.6917 110.737 18.4498 109.714 18.9297C108.481 19.4604 107.153 19.7341 105.811 19.7341C104.469 19.7341 103.141 19.4604 101.908 18.9297H101.89ZM107.684 15.5518C107.921 15.3072 108.106 15.0162 108.227 14.6971C108.347 14.3779 108.401 14.0373 108.384 13.6966C108.39 13.3728 108.332 13.051 108.211 12.7504C108.091 12.4497 107.912 12.1763 107.684 11.9464C107.165 11.4851 106.486 11.2463 105.793 11.2813C105.09 11.2445 104.399 11.483 103.868 11.9464C103.414 12.4152 103.163 13.0439 103.168 13.6966C103.156 14.0368 103.212 14.3759 103.332 14.6944C103.452 15.0128 103.635 15.3043 103.868 15.5518C104.128 15.7876 104.432 15.9694 104.762 16.0866C105.093 16.2038 105.443 16.2541 105.793 16.2344C106.138 16.2523 106.483 16.2011 106.807 16.0839C107.132 15.9667 107.43 15.7858 107.684 15.5518V15.5518Z" fill="white"/>
<path d="M124.766 8.39352V12.524C124.193 12.1908 123.537 12.0269 122.875 12.0515C122.442 12.0227 122.007 12.0892 121.602 12.2465C121.197 12.4037 120.831 12.6478 120.53 12.9616C119.921 13.7889 119.629 14.8075 119.707 15.8319V19.3324H115.017V8.20099H119.602V11.7014C119.743 10.6513 120.167 9.65915 120.828 8.83107C121.107 8.53372 121.446 8.30005 121.824 8.14601C122.202 7.99197 122.608 7.92118 123.015 7.93846C123.63 7.92276 124.236 8.08047 124.766 8.39352V8.39352Z" fill="white"/>
<path d="M140.518 5.6106V19.3498H135.827V16.847C135.486 17.7317 134.873 18.4854 134.077 18.9998C133.167 19.5172 132.13 19.7717 131.084 19.7349C130.089 19.764 129.108 19.4959 128.266 18.9648C127.505 18.4267 126.901 17.6957 126.516 16.847C126.062 15.8956 125.823 14.8558 125.816 13.8016C125.794 12.7106 126.034 11.6303 126.516 10.6512C126.955 9.75444 127.641 9.00158 128.494 8.48095C129.359 7.94378 130.363 7.67013 131.382 7.69336C132.344 7.61514 133.306 7.85772 134.116 8.38327C134.927 8.90881 135.541 9.68779 135.862 10.5987V5.6106H140.518ZM135.127 15.4643C135.358 15.2359 135.541 14.9631 135.664 14.6624C135.788 14.3616 135.849 14.0391 135.845 13.7141C135.862 13.389 135.808 13.064 135.688 12.7618C135.567 12.4595 135.381 12.1872 135.144 11.9639C134.626 11.5027 133.947 11.2638 133.254 11.2988C132.91 11.2819 132.565 11.3335 132.241 11.4507C131.916 11.5679 131.618 11.7482 131.364 11.9814C131.129 12.2062 130.945 12.4787 130.824 12.7806C130.703 13.0825 130.649 13.4068 130.664 13.7316C130.654 14.0558 130.711 14.3785 130.832 14.6796C130.952 14.9807 131.133 15.2538 131.364 15.4818C131.889 15.9282 132.556 16.1733 133.246 16.1733C133.935 16.1733 134.602 15.9282 135.127 15.4818V15.4643Z" fill="white"/>
<path d="M67.0959 8.86603C68.4395 8.86603 69.5287 7.88653 69.5287 6.67825C69.5287 5.46998 68.4395 4.49048 67.0959 4.49048C65.7523 4.49048 64.6631 5.46998 64.6631 6.67825C64.6631 7.88653 65.7523 8.86603 67.0959 8.86603Z" fill="white"/>
<path d="M69.5287 10.3712C68.7599 10.7005 67.9322 10.8704 67.0959 10.8704C66.2595 10.8704 65.4319 10.7005 64.6631 10.3712V19.3498H69.5287V10.3712Z" fill="white"/>
</svg>
