<svg width="24" height="19" viewBox="0 0 24 19" fill="none" xmlns="http://www.w3.org/2000/svg">
<path d="M20.3303 1.59312C18.7535 0.85228 17.0888 0.326704 15.3789 0.0298157C15.1449 0.459072 14.9332 0.900719 14.7446 1.35291C12.9232 1.07125 11.071 1.07125 9.24961 1.35291C9.06095 0.900766 8.84924 0.459124 8.61535 0.0298157C6.90433 0.329211 5.2386 0.856035 3.66019 1.59699C0.526644 6.35471 -0.322811 10.9943 0.101917 15.5679C1.937 16.9593 3.99098 18.0175 6.17458 18.6965C6.66626 18.0178 7.10134 17.2979 7.47519 16.5443C6.76511 16.2721 6.07975 15.9363 5.42706 15.5408C5.59884 15.413 5.76684 15.2812 5.92918 15.1534C7.82837 16.0699 9.90124 16.5452 12 16.5452C14.0987 16.5452 16.1715 16.0699 18.0707 15.1534C18.235 15.2909 18.403 15.4226 18.5729 15.5408C17.9189 15.937 17.2323 16.2734 16.5209 16.5462C16.8943 17.2995 17.3294 18.0188 17.8216 18.6965C20.007 18.0202 22.0626 16.9626 23.898 15.5699C24.3963 10.2659 23.0467 5.66895 20.3303 1.59312ZM8.01318 12.7552C6.82961 12.7552 5.85179 11.6529 5.85179 10.2969C5.85179 8.94084 6.79563 7.8289 8.0094 7.8289C9.22318 7.8289 10.1934 8.94084 10.1727 10.2969C10.1519 11.6529 9.21941 12.7552 8.01318 12.7552ZM15.9867 12.7552C14.8013 12.7552 13.8272 11.6529 13.8272 10.2969C13.8272 8.94084 14.7711 7.8289 15.9867 7.8289C17.2024 7.8289 18.1651 8.94084 18.1444 10.2969C18.1236 11.6529 17.193 12.7552 15.9867 12.7552Z" fill="#DBDBDB"/>
</svg>
