<svg width="24" height="25" viewBox="0 0 24 25" fill="none" xmlns="http://www.w3.org/2000/svg">
<path d="M17.34 5.82316C17.1027 5.82316 16.8707 5.89354 16.6733 6.0254C16.476 6.15725 16.3222 6.34467 16.2313 6.56394C16.1405 6.78321 16.1168 7.02449 16.1631 7.25727C16.2094 7.49004 16.3236 7.70386 16.4915 7.87169C16.6593 8.03951 16.8731 8.1538 17.1059 8.2001C17.3387 8.2464 17.5799 8.22264 17.7992 8.13181C18.0185 8.04099 18.2059 7.88718 18.3378 7.68984C18.4696 7.4925 18.54 7.2605 18.54 7.02316C18.54 6.7049 18.4136 6.39967 18.1885 6.17463C17.9635 5.94959 17.6583 5.82316 17.34 5.82316ZM21.94 8.24316C21.9206 7.41346 21.7652 6.59256 21.48 5.81316C21.2257 5.14629 20.83 4.54244 20.32 4.04316C19.8248 3.53059 19.2196 3.13734 18.55 2.89316C17.7727 2.59932 16.9508 2.44037 16.12 2.42316C15.06 2.36316 14.72 2.36316 12 2.36316C9.28 2.36316 8.94 2.36316 7.88 2.42316C7.04915 2.44037 6.22734 2.59932 5.45 2.89316C4.78168 3.13981 4.17693 3.53272 3.68 4.04316C3.16743 4.53834 2.77418 5.1436 2.53 5.81316C2.23616 6.5905 2.07721 7.41231 2.06 8.24316C2 9.30316 2 9.64316 2 12.3632C2 15.0832 2 15.4232 2.06 16.4832C2.07721 17.314 2.23616 18.1358 2.53 18.9132C2.77418 19.5827 3.16743 20.188 3.68 20.6832C4.17693 21.1936 4.78168 21.5865 5.45 21.8332C6.22734 22.127 7.04915 22.2859 7.88 22.3032C8.94 22.3632 9.28 22.3632 12 22.3632C14.72 22.3632 15.06 22.3632 16.12 22.3032C16.9508 22.2859 17.7727 22.127 18.55 21.8332C19.2196 21.589 19.8248 21.1957 20.32 20.6832C20.8322 20.1857 21.2283 19.5814 21.48 18.9132C21.7652 18.1338 21.9206 17.3129 21.94 16.4832C21.94 15.4232 22 15.0832 22 12.3632C22 9.64316 22 9.30316 21.94 8.24316ZM20.14 16.3632C20.1327 16.9979 20.0178 17.6269 19.8 18.2232C19.6403 18.6584 19.3839 19.0516 19.05 19.3732C18.7256 19.7037 18.3332 19.9596 17.9 20.1232C17.3037 20.3409 16.6748 20.4559 16.04 20.4632C15.04 20.5132 14.67 20.5232 12.04 20.5232C9.41 20.5232 9.04 20.5232 8.04 20.4632C7.38089 20.4755 6.72459 20.374 6.1 20.1632C5.68578 19.9912 5.31136 19.7359 5 19.4132C4.66809 19.0919 4.41484 18.6984 4.26 18.2632C4.01586 17.6583 3.88044 17.0151 3.86 16.3632C3.86 15.3632 3.8 14.9932 3.8 12.3632C3.8 9.73316 3.8 9.36316 3.86 8.36316C3.86448 7.71421 3.98295 7.0711 4.21 6.46316C4.38605 6.04107 4.65627 5.66482 5 5.36316C5.30381 5.01933 5.67929 4.74625 6.1 4.56316C6.70955 4.3432 7.352 4.22824 8 4.22316C9 4.22316 9.37 4.16316 12 4.16316C14.63 4.16316 15 4.16316 16 4.22316C16.6348 4.23044 17.2637 4.34541 17.86 4.56316C18.3144 4.73181 18.7223 5.00601 19.05 5.36316C19.3777 5.67034 19.6338 6.04589 19.8 6.46316C20.0223 7.07209 20.1373 7.71494 20.14 8.36316C20.19 9.36316 20.2 9.73316 20.2 12.3632C20.2 14.9932 20.19 15.3632 20.14 16.3632ZM12 7.23316C10.9858 7.23514 9.99496 7.53768 9.15265 8.10258C8.31035 8.66747 7.65438 9.46936 7.26763 10.4069C6.88089 11.3445 6.78072 12.3756 6.97979 13.3701C7.17886 14.3646 7.66824 15.2777 8.38608 15.9941C9.10392 16.7106 10.018 17.1982 11.0129 17.3953C12.0077 17.5924 13.0387 17.4903 13.9755 17.1017C14.9123 16.7131 15.7129 16.0556 16.2761 15.2122C16.8394 14.3688 17.14 13.3774 17.14 12.3632C17.1413 11.6883 17.0092 11.0198 16.7512 10.3961C16.4933 9.77246 16.1146 9.20597 15.6369 8.72921C15.1592 8.25245 14.5919 7.87484 13.9678 7.61809C13.3436 7.36134 12.6749 7.23052 12 7.23316ZM12 15.6932C11.3414 15.6932 10.6976 15.4979 10.15 15.132C9.60234 14.766 9.17552 14.246 8.92348 13.6375C8.67144 13.029 8.6055 12.3595 8.73398 11.7135C8.86247 11.0676 9.17963 10.4742 9.64533 10.0085C10.111 9.54278 10.7044 9.22563 11.3503 9.09714C11.9963 8.96866 12.6659 9.0346 13.2743 9.28664C13.8828 9.53868 14.4029 9.96549 14.7688 10.5131C15.1347 11.0607 15.33 11.7045 15.33 12.3632C15.33 12.8005 15.2439 13.2335 15.0765 13.6375C14.9092 14.0415 14.6639 14.4086 14.3547 14.7178C14.0454 15.027 13.6784 15.2723 13.2743 15.4397C12.8703 15.607 12.4373 15.6932 12 15.6932Z" fill="#DBDBDB"/>
</svg>
