<svg width="24" height="21" viewBox="0 0 24 21" fill="none" xmlns="http://www.w3.org/2000/svg">
<path d="M21.543 5.34211C21.5576 5.55909 21.5576 5.77608 21.5576 5.99507C21.5576 12.6676 16.6045 20.3632 7.54759 20.3632V20.3592C4.87215 20.3632 2.25229 19.5772 0 18.0953C0.389031 18.1433 0.780012 18.1673 1.17197 18.1683C3.38915 18.1703 5.54296 17.4073 7.28726 16.0024C5.18026 15.9614 3.3326 14.5525 2.68714 12.4957C3.42523 12.6416 4.18574 12.6116 4.91018 12.4087C2.61304 11.9327 0.96039 9.86282 0.96039 7.45897C0.96039 7.43697 0.96039 7.41598 0.96039 7.39498C1.64485 7.78595 2.41121 8.00294 3.19512 8.02694C1.03157 6.54403 0.364656 3.59222 1.67118 1.28436C4.17111 4.43916 7.8596 6.35704 11.8191 6.56003C11.4223 4.80614 11.9644 2.96826 13.2436 1.73533C15.2268 -0.176544 18.3459 -0.0785505 20.2101 1.95432C21.3129 1.73134 22.3698 1.31636 23.337 0.728399C22.9694 1.89732 22.2001 2.89026 21.1725 3.52122C22.1484 3.40323 23.102 3.13525 24 2.72627C23.3389 3.74221 22.5063 4.62715 21.543 5.34211Z" fill="#DBDBDB"/>
</svg>
