<svg width="44" height="45" viewBox="0 0 44 45" fill="none" xmlns="http://www.w3.org/2000/svg">
<path d="M25.6665 5.70001V13.0333C25.6665 13.5196 25.8597 13.9859 26.2035 14.3297C26.5473 14.6735 27.0136 14.8667 27.4998 14.8667H34.8332" stroke="white" stroke-width="2" stroke-linecap="round" stroke-linejoin="round"/>
<path d="M31.1665 38.7H12.8332C11.8607 38.7 10.9281 38.3137 10.2404 37.6261C9.55281 36.9384 9.1665 36.0058 9.1665 35.0333V9.36668C9.1665 8.39422 9.55281 7.46159 10.2404 6.77395C10.9281 6.08632 11.8607 5.70001 12.8332 5.70001H25.6665L34.8332 14.8667V35.0333C34.8332 36.0058 34.4469 36.9384 33.7592 37.6261C33.0716 38.3137 32.139 38.7 31.1665 38.7Z" stroke="white" stroke-width="2" stroke-linecap="round" stroke-linejoin="round"/>
<path d="M16.5 16.7H18.3333" stroke="white" stroke-width="2" stroke-linecap="round" stroke-linejoin="round"/>
<path d="M16.5 24.0333H27.5" stroke="white" stroke-width="2" stroke-linecap="round" stroke-linejoin="round"/>
<path d="M16.5 31.3667H27.5" stroke="white" stroke-width="2" stroke-linecap="round" stroke-linejoin="round"/>
</svg>
