<svg width="44" height="44" viewBox="0 0 44 44" fill="none" xmlns="http://www.w3.org/2000/svg">
<path d="M9.16667 7.33315H16.5L20.1667 16.4998L15.5833 19.2498C17.5468 23.231 20.7689 26.4531 24.75 28.4165L27.5 23.8332L36.6667 27.4998V34.8332C36.6667 35.8056 36.2804 36.7382 35.5927 37.4259C34.9051 38.1135 33.9725 38.4998 33 38.4998C25.8487 38.0652 19.1036 35.0284 14.0375 29.9623C8.97142 24.8962 5.93459 18.1512 5.5 10.9998C5.5 10.0274 5.88631 9.09473 6.57394 8.40709C7.26158 7.71946 8.19421 7.33315 9.16667 7.33315" stroke="white" stroke-width="2" stroke-linecap="round" stroke-linejoin="round"/>
<path d="M27.5 12.8332C28.4725 12.8332 29.4051 13.2195 30.0927 13.9071C30.7804 14.5947 31.1667 15.5274 31.1667 16.4998" stroke="white" stroke-width="2" stroke-linecap="round" stroke-linejoin="round"/>
<path d="M27.5 5.49982C30.4174 5.49982 33.2153 6.65874 35.2782 8.72164C37.3411 10.7845 38.5 13.5824 38.5 16.4998" stroke="white" stroke-width="2" stroke-linecap="round" stroke-linejoin="round"/>
</svg>
