<svg width="375" height="233" viewBox="0 0 375 233" fill="none" xmlns="http://www.w3.org/2000/svg">
<g clip-path="url(#clip0_806_8770)">
<rect width="375" height="233" fill="#460259"/>
<g filter="url(#filter0_d_806_8770)">
<path d="M-7.65881 -98H334.659C361.875 -98 384 -74.348 384 -45.1904V321.19C384 350.32 361.901 374 334.659 374H-7.65881C-34.8752 374 -57 350.348 -57 321.19V-45.1904C-57 -74.3199 -34.9014 -98 -7.65881 -98Z" fill="#460259"/>
<g opacity="0.5">
<path d="M55.5591 169.607L63.7422 174.092L71.9252 178.561L63.9434 183.399L55.9615 188.236L55.7603 178.913L55.5591 169.607Z" fill="url(#paint0_linear_806_8770)"/>
<path d="M93.5742 123.008V136.047L102.545 131.527L93.5742 123.008Z" fill="url(#paint1_linear_806_8770)"/>
<path d="M268.989 47.4696L275.697 57.5291L281.8 50.1477L268.989 47.4696Z" fill="url(#paint2_linear_806_8770)"/>
<path d="M51.9196 107.961C51.5339 106.973 50.6955 106.153 49.3707 105.6C49.0186 105.45 48.6497 105.333 48.264 105.232C48.1299 105.199 47.9957 105.182 47.8616 105.149C47.5933 105.082 47.3082 105.031 47.0231 104.981C46.8554 104.948 46.671 104.931 46.5033 104.914C46.2183 104.881 45.9499 104.847 45.6481 104.831C45.4469 104.831 45.2457 104.831 45.0444 104.814C44.8768 104.814 44.7258 104.797 44.5582 104.797C44.4408 104.797 44.3234 104.797 44.206 104.797C43.9042 104.797 43.5856 104.814 43.2502 104.831C43.0825 104.831 42.9484 104.831 42.7807 104.847C42.6633 104.847 42.5292 104.881 42.4118 104.881C42.1938 104.897 41.959 104.931 41.7243 104.948C41.5566 104.964 41.3889 104.981 41.2212 104.998C41.0368 105.015 40.8523 105.048 40.6678 105.082C40.4666 105.115 40.2822 105.132 40.0809 105.165C39.9636 105.182 39.8629 105.199 39.7456 105.216C39.4102 105.282 39.0581 105.349 38.7227 105.416C38.6053 105.433 38.5047 105.45 38.3873 105.483C38.3538 105.483 38.3202 105.483 38.3035 105.5C37.8172 105.6 37.3309 105.718 36.8446 105.852C36.7775 105.852 36.7272 105.885 36.6602 105.902C36.5092 105.935 36.3415 105.985 36.1906 106.036C35.9056 106.119 35.6205 106.186 35.3354 106.27C35.1677 106.32 35.0001 106.37 34.8491 106.421C34.6479 106.488 34.4467 106.538 34.2455 106.605C34.0946 106.655 33.9436 106.688 33.7927 106.739C33.5077 106.839 33.2226 106.94 32.9375 107.04C32.7531 107.107 32.5686 107.157 32.3674 107.241C32.3003 107.258 32.2332 107.291 32.1662 107.308C31.6799 107.492 31.1768 107.676 30.6905 107.877C30.6235 107.91 30.5396 107.927 30.4725 107.961C30.4725 107.961 30.4558 107.961 30.439 107.961C29.8186 108.212 29.1981 108.463 28.5777 108.747C28.5609 108.747 28.5274 108.764 28.5106 108.781C28.0914 108.965 27.689 109.166 27.2697 109.35C27.0014 109.467 26.7499 109.584 26.4816 109.718C26.4816 109.718 26.4481 109.718 26.4481 109.735C25.6767 110.103 24.9221 110.505 24.1675 110.923C24.1172 110.957 24.0502 110.973 23.9999 111.007C23.6477 111.208 23.2956 111.409 22.9434 111.609C22.7422 111.727 22.5242 111.844 22.323 111.961C21.7026 112.329 21.0821 112.714 20.4785 113.116C20.4114 113.149 20.3611 113.2 20.294 113.233C20.1263 113.333 19.9922 113.451 19.8245 113.551C19.5059 113.769 19.1873 113.969 18.8854 114.187C18.6842 114.321 18.4998 114.472 18.3153 114.605C18.047 114.806 17.7619 115.007 17.5104 115.208C17.326 115.359 17.1415 115.493 16.9571 115.643C16.7055 115.844 16.4708 116.028 16.236 116.229C16.0515 116.38 15.8839 116.53 15.7162 116.681C15.4982 116.882 15.2802 117.066 15.0622 117.25C14.9784 117.317 14.8945 117.384 14.8274 117.468C14.7604 117.535 14.6933 117.602 14.6262 117.669C14.3579 117.92 14.1064 118.187 13.8549 118.438C13.7375 118.556 13.6201 118.673 13.5195 118.79C13.2009 119.125 12.8991 119.476 12.614 119.811C12.5972 119.828 12.5804 119.844 12.5637 119.878C12.5469 119.895 12.5301 119.928 12.5134 119.945C12.2954 120.213 12.0942 120.464 11.9097 120.732C11.8426 120.815 11.7923 120.916 11.7253 120.999C11.6414 121.117 11.5576 121.217 11.4905 121.334C11.457 121.384 11.4234 121.435 11.3899 121.502C11.2222 121.753 11.0713 122.02 10.9371 122.271C10.9036 122.338 10.8533 122.405 10.803 122.489C10.803 122.506 10.7862 122.539 10.7694 122.556C10.6521 122.774 10.5682 122.991 10.4676 123.192C10.4341 123.276 10.3838 123.359 10.3502 123.426C10.3502 123.426 10.3502 123.443 10.3502 123.46C10.2999 123.594 10.2496 123.728 10.1993 123.878C10.149 124.012 10.0987 124.146 10.0652 124.263C10.0652 124.263 10.0652 124.28 10.0652 124.297C10.0316 124.38 10.0316 124.481 9.99809 124.565C9.96455 124.715 9.93101 124.866 9.89747 125C9.89747 125.017 9.89747 125.033 9.89747 125.067C9.89747 125.15 9.89747 125.234 9.88071 125.318C9.88071 125.435 9.84717 125.552 9.84717 125.669C9.84717 125.703 9.84717 125.736 9.84717 125.77C9.84717 125.853 9.84717 125.937 9.84717 126.021C9.84717 126.104 9.84717 126.205 9.84717 126.289C9.84717 126.339 9.86394 126.389 9.88071 126.439C9.88071 126.523 9.91424 126.607 9.93101 126.69C9.93101 126.757 9.94778 126.807 9.96455 126.874C9.99808 126.992 10.0316 127.109 10.0819 127.226L13.7207 135.428C13.6536 135.26 13.6033 135.076 13.5698 134.892C13.553 134.808 13.5363 134.725 13.5195 134.641C13.5027 134.507 13.486 134.356 13.4692 134.222C13.4692 134.139 13.4692 134.055 13.4692 133.971C13.4692 133.821 13.4692 133.67 13.5027 133.503C13.5027 133.419 13.5027 133.335 13.5195 133.252C13.5363 133.084 13.5866 132.917 13.6201 132.749C13.6369 132.666 13.6536 132.565 13.6872 132.482C13.7207 132.348 13.7878 132.197 13.8213 132.063C13.8716 131.929 13.9052 131.795 13.9555 131.661C13.989 131.578 14.0393 131.477 14.0896 131.377C14.1735 131.159 14.2741 130.958 14.3915 130.741C14.4418 130.64 14.5088 130.557 14.5591 130.456C14.6933 130.205 14.8442 129.954 15.0119 129.703C15.1125 129.536 15.2299 129.368 15.3473 129.201C15.4143 129.117 15.4646 129.017 15.5317 128.933C15.7162 128.682 15.9174 128.414 16.1354 128.146C16.1522 128.13 16.1689 128.096 16.1857 128.08C16.2025 128.046 16.236 128.029 16.2528 127.996C16.5378 127.661 16.8397 127.326 17.1583 126.975C17.2589 126.858 17.3763 126.741 17.4936 126.623C17.7452 126.372 17.9967 126.104 18.265 125.853C18.4159 125.719 18.5501 125.586 18.701 125.435C18.9022 125.251 19.1202 125.05 19.355 124.849C19.5226 124.698 19.6903 124.548 19.8748 124.397C20.1095 124.196 20.3443 124.012 20.5958 123.811C20.7803 123.661 20.9647 123.527 21.1492 123.376C21.4175 123.175 21.6858 122.974 21.9541 122.774C22.1385 122.64 22.323 122.489 22.5242 122.355C22.8261 122.138 23.1447 121.92 23.4633 121.719C23.6813 121.568 23.8825 121.435 24.1005 121.284C24.7041 120.882 25.3246 120.514 25.945 120.129C26.1462 120.012 26.3642 119.895 26.5655 119.761C26.9679 119.526 27.3871 119.292 27.7896 119.058C28.5441 118.639 29.2987 118.254 30.0701 117.869C30.3384 117.735 30.6067 117.618 30.875 117.501C31.2942 117.3 31.7134 117.099 32.1326 116.915C32.7866 116.631 33.4406 116.346 34.0946 116.095C34.1784 116.062 34.2455 116.028 34.3293 116.011C34.8827 115.794 35.4528 115.576 36.0062 115.392C36.1906 115.325 36.3919 115.258 36.5763 115.191C37.0123 115.041 37.4483 114.89 37.8843 114.756C38.0855 114.689 38.2867 114.639 38.4879 114.572C38.9407 114.438 39.3767 114.304 39.8294 114.187C39.9803 114.137 40.148 114.103 40.2989 114.053C40.8858 113.903 41.4727 113.769 42.0429 113.635C42.1602 113.618 42.2776 113.584 42.395 113.568C42.8478 113.467 43.3005 113.384 43.7533 113.317C43.9545 113.283 44.1389 113.25 44.3402 113.233C44.6923 113.183 45.0444 113.133 45.3966 113.099C45.6313 113.066 45.8493 113.049 46.0841 113.032C46.3692 112.999 46.6375 112.999 46.9225 112.982C47.2411 112.965 47.5597 112.948 47.8783 112.948C48.1634 112.948 48.4317 112.948 48.7168 112.948C48.918 112.948 49.1192 112.948 49.3204 112.965C49.6055 112.982 49.8906 113.015 50.1756 113.049C50.3601 113.066 50.5278 113.082 50.7122 113.116C51.0141 113.166 51.2824 113.216 51.5507 113.283C51.6848 113.317 51.8357 113.333 51.9531 113.367C52.3388 113.467 52.7245 113.601 53.0598 113.735C54.3678 114.287 55.2062 115.108 55.6087 116.095L51.9699 107.894L51.9196 107.961Z" fill="url(#paint3_linear_806_8770)"/>
<path d="M73.2995 112.731C73.2995 112.613 73.2492 112.496 73.2324 112.379C73.1989 112.195 73.1653 112.011 73.1318 111.844C73.115 111.76 73.0983 111.659 73.0815 111.576C73.0144 111.341 72.9306 111.107 72.8467 110.873L68.4869 101.399C68.6043 101.717 68.7049 102.052 68.772 102.387C68.8223 102.571 68.8558 102.755 68.8726 102.922C68.9061 103.157 68.9396 103.374 68.9564 103.625C68.9564 103.809 68.9732 103.993 68.99 104.194C68.99 104.429 68.9899 104.68 68.9732 104.931C68.9732 105.132 68.9396 105.332 68.9229 105.533C68.8893 105.784 68.839 106.019 68.7887 106.27C68.7384 106.487 68.7049 106.722 68.6378 106.939C68.5707 107.174 68.5037 107.425 68.4198 107.659C68.336 107.927 68.2521 108.195 68.1515 108.462C68.0006 108.864 67.8497 109.249 67.6485 109.651C67.6485 109.684 67.6149 109.718 67.5982 109.751C67.3969 110.186 67.1622 110.622 66.8939 111.074C66.8436 111.157 66.7933 111.258 66.743 111.341C66.4747 111.793 66.1896 112.262 65.871 112.714C65.7704 112.865 65.6698 113.015 65.5524 113.149C65.3009 113.501 65.0493 113.852 64.7643 114.22C64.6301 114.388 64.5127 114.555 64.3786 114.722C64.0097 115.191 63.624 115.643 63.2048 116.112C63.1712 116.145 63.1377 116.195 63.0874 116.229C62.6682 116.698 62.2154 117.183 61.7459 117.652C61.6788 117.735 61.595 117.802 61.5279 117.886C61.0752 118.338 60.6056 118.79 60.1026 119.258C59.7672 119.56 59.4151 119.878 59.0629 120.179C58.7611 120.447 58.476 120.715 58.1574 120.966C57.7885 121.284 57.4028 121.585 57.0172 121.903C56.6986 122.171 56.38 122.422 56.0446 122.69C55.6421 123.008 55.2062 123.326 54.7702 123.644C54.4348 123.895 54.0994 124.146 53.7473 124.397C53.2945 124.715 52.825 125.033 52.3555 125.351C51.9531 125.636 51.5506 125.903 51.1314 126.188C50.293 126.74 49.4378 127.259 48.5826 127.778C48.4317 127.878 48.264 127.979 48.113 128.063C47.2914 128.565 46.453 129.033 45.5978 129.502C45.4636 129.569 45.3295 129.653 45.1953 129.72C44.0047 130.372 42.7974 130.992 41.5733 131.594C41.4391 131.661 41.305 131.728 41.1541 131.795C40.148 132.281 39.1418 132.749 38.1357 133.201C37.968 133.268 37.8004 133.352 37.6327 133.419C36.7272 133.82 35.8049 134.205 34.8826 134.574C34.7317 134.641 34.5808 134.691 34.4299 134.758C33.625 135.076 32.8201 135.377 32.0152 135.678C31.8978 135.729 31.7804 135.762 31.6631 135.812C30.8246 136.114 30.003 136.398 29.1813 136.666C28.9801 136.733 28.7956 136.783 28.5944 136.85C27.8398 137.084 27.102 137.319 26.3642 137.536C26.2803 137.553 26.1965 137.586 26.1127 137.603C25.3078 137.838 24.5196 138.055 23.7147 138.256C23.5135 138.306 23.3291 138.356 23.1278 138.407C22.3733 138.591 21.6187 138.775 20.8641 138.942C20.8138 138.942 20.7467 138.976 20.6964 138.976C19.8747 139.143 19.0866 139.311 18.2817 139.444C18.0973 139.478 17.9296 139.511 17.7451 139.545C16.9067 139.695 16.085 139.813 15.2801 139.93C15.1795 139.93 15.0622 139.963 14.9615 139.963C14.0225 140.08 13.0835 140.181 12.178 140.248C12.0941 140.248 12.0103 140.248 11.9097 140.248C11.4401 140.281 10.9538 140.315 10.5011 140.332C10.2999 140.332 10.1154 140.332 9.93096 140.332C9.57882 140.332 9.22668 140.348 8.87454 140.348C8.62301 140.348 8.35471 140.348 8.10318 140.348C7.88519 140.348 7.65043 140.348 7.43244 140.348C7.18091 140.348 6.91261 140.332 6.66109 140.315C6.44309 140.315 6.2251 140.298 6.00711 140.281C5.75558 140.265 5.50405 140.231 5.25252 140.214C5.0513 140.198 4.83331 140.181 4.63208 140.147C4.38056 140.114 4.14579 140.08 3.89427 140.047C3.69304 140.013 3.50859 139.997 3.30737 139.963C3.05584 139.93 2.82108 139.88 2.58632 139.829C2.40186 139.796 2.23418 139.762 2.04972 139.729C1.79819 139.679 1.56343 139.612 1.32867 139.562C1.17775 139.528 1.01007 139.495 0.859152 139.444C0.607623 139.377 0.356092 139.294 0.104564 139.21C-0.0128164 139.177 -0.146964 139.143 -0.264344 139.093C-0.633254 138.959 -0.985394 138.825 -1.32077 138.691C-4.03728 137.536 -5.76444 135.879 -6.56934 133.854L-2.2095 143.328C-1.40461 145.353 0.322556 147.01 3.03907 148.165C3.37444 148.316 3.72658 148.449 4.09549 148.567C4.21287 148.617 4.34702 148.65 4.48117 148.684C4.7327 148.767 4.96746 148.834 5.21898 148.918C5.3699 148.968 5.53759 149.002 5.70527 149.035C5.94003 149.102 6.1748 149.152 6.40956 149.203C6.57724 149.236 6.7617 149.27 6.94615 149.303C7.18091 149.353 7.41567 149.403 7.65043 149.437C7.83489 149.47 8.03611 149.487 8.23733 149.521C8.47209 149.554 8.72362 149.588 8.95838 149.621C9.15961 149.638 9.36083 149.655 9.57882 149.688C9.83035 149.705 10.0819 149.738 10.3334 149.755C10.5514 149.755 10.7694 149.772 10.9874 149.788C11.2389 149.788 11.4904 149.822 11.7587 149.822C11.9767 149.822 12.2115 149.822 12.4295 149.822C12.6139 149.822 12.7984 149.822 12.9996 149.822C13.0667 149.822 13.1338 149.822 13.2008 149.822C13.553 149.822 13.9051 149.822 14.274 149.805C14.4585 149.805 14.6429 149.805 14.8442 149.805C15.3137 149.788 15.7832 149.755 16.2695 149.722C16.3533 149.722 16.4372 149.722 16.5042 149.722C17.4098 149.655 18.3488 149.554 19.2878 149.437C19.3549 149.437 19.422 149.437 19.4891 149.42C19.5226 149.42 19.5729 149.42 19.6064 149.403C20.4113 149.303 21.233 149.169 22.0714 149.019C22.1553 149.019 22.2391 149.002 22.323 148.985C22.4236 148.985 22.5074 148.952 22.608 148.935C23.4129 148.784 24.2178 148.634 25.0227 148.466C25.0227 148.466 25.0395 148.466 25.0562 148.466C25.1065 148.466 25.1401 148.449 25.1904 148.433C25.9282 148.265 26.6828 148.098 27.4541 147.897C27.5548 147.864 27.6554 147.847 27.7727 147.83C27.8566 147.813 27.9572 147.78 28.041 147.763C28.8292 147.562 29.6341 147.345 30.4389 147.11C30.4557 147.11 30.4725 147.11 30.4893 147.11C30.5563 147.094 30.6234 147.077 30.6905 147.043C31.4283 146.826 32.1829 146.592 32.9207 146.357C33.0381 146.324 33.1387 146.29 33.2561 146.257C33.3399 146.223 33.4238 146.19 33.5076 146.173C34.3293 145.905 35.1677 145.621 35.9894 145.319C36.0229 145.319 36.0564 145.303 36.09 145.286C36.1738 145.252 36.2577 145.219 36.3415 145.186C37.1464 144.901 37.9513 144.583 38.7562 144.265C38.8568 144.231 38.9574 144.181 39.058 144.148C39.1083 144.131 39.1586 144.098 39.2089 144.081C40.1312 143.713 41.0367 143.328 41.959 142.926C42.0428 142.892 42.1267 142.859 42.2273 142.809C42.3111 142.775 42.3782 142.725 42.462 142.692C43.4682 142.24 44.491 141.771 45.4804 141.286C45.5475 141.252 45.6145 141.219 45.6816 141.185C45.7487 141.152 45.8158 141.118 45.8828 141.085C47.1069 140.482 48.3143 139.863 49.5048 139.21C49.5719 139.177 49.639 139.143 49.7061 139.11C49.7731 139.076 49.8402 139.043 49.9073 138.992C50.7625 138.524 51.6009 138.038 52.4226 137.553C52.5735 137.453 52.7412 137.369 52.8921 137.268C53.7473 136.75 54.6025 136.214 55.4409 135.678C55.5415 135.611 55.6421 135.544 55.7428 135.478C56.0614 135.26 56.3464 135.059 56.665 134.841C57.1346 134.523 57.6208 134.205 58.0736 133.871C58.4257 133.62 58.7611 133.369 59.0965 133.117C59.5157 132.799 59.9517 132.481 60.3709 132.163C60.7063 131.896 61.0249 131.645 61.3435 131.377C61.7291 131.059 62.1148 130.757 62.4837 130.439C62.8023 130.172 63.0874 129.904 63.3892 129.653C63.7414 129.335 64.0935 129.033 64.4289 128.732C64.5127 128.665 64.5966 128.581 64.6804 128.515C65.0829 128.13 65.4685 127.745 65.8542 127.376C65.9381 127.293 66.0051 127.226 66.0722 127.142C66.5417 126.673 66.9777 126.188 67.4137 125.719C67.4472 125.669 67.4975 125.636 67.5311 125.585C67.8329 125.234 68.1348 124.882 68.4198 124.548C68.5204 124.43 68.6043 124.313 68.6881 124.196C68.8223 124.029 68.9564 123.861 69.0738 123.694C69.3421 123.343 69.6104 122.991 69.8619 122.623C69.9625 122.472 70.0799 122.321 70.1805 122.188C70.2308 122.121 70.2811 122.054 70.3147 121.987C70.583 121.585 70.8177 121.2 71.0525 120.798C71.1028 120.715 71.1531 120.614 71.2034 120.531C71.3208 120.33 71.4382 120.129 71.5388 119.945C71.6729 119.71 71.7903 119.459 71.8909 119.225C71.8909 119.191 71.9245 119.158 71.9412 119.125C72.0921 118.823 72.2263 118.522 72.3437 118.221C72.3772 118.12 72.4107 118.037 72.4443 117.936C72.5449 117.668 72.6287 117.401 72.7126 117.133C72.7629 116.982 72.83 116.831 72.8635 116.664C72.8803 116.58 72.897 116.497 72.9138 116.396C72.9809 116.162 73.0144 115.944 73.0647 115.727C73.0983 115.576 73.1486 115.409 73.1653 115.258C73.1653 115.158 73.1653 115.074 73.1989 114.974C73.2324 114.773 73.2492 114.572 73.2492 114.371C73.2492 114.237 73.2827 114.086 73.2827 113.953C73.2827 113.852 73.2827 113.752 73.2827 113.634C73.2827 113.45 73.2827 113.25 73.2492 113.065C73.2492 112.948 73.2492 112.831 73.2492 112.714L73.2995 112.731Z" fill="url(#paint4_linear_806_8770)"/>
<path d="M63.2395 104.427C52.1387 99.7068 28.6291 105.331 10.8544 116.964C-6.92031 128.596 -12.3366 141.886 -1.23575 146.606C9.88182 151.327 33.3746 145.703 51.1493 134.07C68.924 122.437 74.3571 109.147 63.2395 104.427ZM41.5577 130.002C31.4295 136.631 18.4506 140.012 12.6319 137.535C6.81317 135.057 10.3178 127.659 20.446 121.031C30.5743 114.403 43.5532 111.022 49.3719 113.499C55.1906 115.976 51.6692 123.374 41.5577 130.002Z" fill="url(#paint5_linear_806_8770)"/>
<path d="M284.736 152.233L263.021 148.617L252.004 166.075L273.719 169.691L284.736 152.233Z" fill="url(#paint6_linear_806_8770)"/>
<path d="M263.021 148.617L254.905 130.021L243.888 147.496L252.004 166.075L263.021 148.617Z" fill="url(#paint7_linear_806_8770)"/>
<path d="M276.62 133.637L254.904 130.021L263.02 148.617L284.736 152.233L276.62 133.637Z" fill="url(#paint8_linear_806_8770)"/>
<path d="M77.8278 85.1135L80.1754 87.4568L82.2882 85.3478L79.9406 83.0045L82.2882 80.6612L80.1754 78.5355L77.8278 80.8788L75.4802 78.5355L73.3506 80.6612L75.6982 83.0045L73.3506 85.3478L75.4802 87.4568L77.8278 85.1135Z" fill="url(#paint9_linear_806_8770)"/>
<path d="M44.5933 49.5955L46.9409 51.9388L49.0705 49.8131L46.7229 47.4698L49.0705 45.1432L46.9409 43.0175L44.5933 45.3608L42.2457 43.0175L40.1328 45.1432L42.4637 47.4698L40.1328 49.8131L42.2457 51.9388L44.5933 49.5955Z" fill="#FFFCDF"/>
<path d="M270.684 194.696C273.367 194.496 275.514 193.893 275.514 193.893C275.514 193.893 273.334 193.29 270.634 193.09C270.433 190.395 269.829 188.219 269.829 188.219C269.829 188.219 269.226 190.361 269.024 193.039C267.348 193.039 265.604 193.257 264.128 193.893C265.587 194.529 267.297 194.747 268.957 194.747C268.957 196.404 269.175 198.111 269.813 199.567C270.45 198.094 270.668 196.354 270.668 194.68L270.684 194.696Z" fill="#FFFCDF"/>
</g>
<path style="mix-blend-mode:color-dodge" d="M210.422 117.418H188.688V126.548H210.422V117.418Z" fill="url(#paint10_linear_806_8770)"/>
<path style="mix-blend-mode:color-dodge" d="M196.949 119.783H175.215V124.204H196.949V119.783Z" fill="url(#paint11_linear_806_8770)"/>
<path style="mix-blend-mode:screen" d="M399.738 123H312V132.13H399.738V123Z" fill="url(#paint12_linear_806_8770)"/>
<path style="mix-blend-mode:screen" d="M352.834 97.7602H312.065V101.482H352.834V97.7602Z" fill="url(#paint13_linear_806_8770)"/>
<path d="M360.19 97.8835H356.75V101.318H360.19V97.8835Z" fill="#F2DDF0"/>
<path d="M360.169 97.8835H359.283V101.318H360.169V97.8835Z" fill="#DA3B71"/>
<path d="M356.708 97.8838H356.008V101.318H356.708V97.8838Z" fill="#70E4FD"/>
<path style="mix-blend-mode:color-dodge" d="M66.6505 10.6757H-22.0972V16.3306H66.6505V10.6757Z" fill="url(#paint14_linear_806_8770)"/>
<g style="mix-blend-mode:color-dodge">
<g style="mix-blend-mode:screen">
<path d="M272.328 170.718H274.8V165.844H272.328V170.718Z" fill="#3793D2"/>
</g>
<g style="mix-blend-mode:screen">
<path d="M268.805 170.717H269.176V165.844H268.805V170.717Z" fill="#3793D2"/>
</g>
<g style="mix-blend-mode:screen">
<path d="M269.897 170.718H270.268V165.844H269.897V170.718Z" fill="#3793D2"/>
</g>
<g style="mix-blend-mode:screen">
<path d="M271.007 170.718H271.357V165.844H271.007V170.718Z" fill="#3793D2"/>
</g>
</g>
</g>
<g opacity="0.5">
<path d="M334.743 207.547L313.028 203.932L302.011 221.389L323.726 225.005L334.743 207.547Z" fill="url(#paint15_linear_806_8770)"/>
<path d="M313.028 203.931L304.911 185.336L293.895 202.81L302.011 221.389L313.028 203.931Z" fill="url(#paint16_linear_806_8770)"/>
<path d="M326.626 188.951L304.911 185.336L313.027 203.931L334.742 207.547L326.626 188.951Z" fill="url(#paint17_linear_806_8770)"/>
</g>
<path d="M63.4838 24.96V39H60.0638V30.58L56.9238 39H54.1638L51.0038 30.56V39H47.5838V24.96H51.6237L55.5638 34.68L59.4638 24.96H63.4838ZM70.3631 27.7V30.54H74.9431V33.18H70.3631V36.26H75.5431V39H66.9431V24.96H75.5431V27.7H70.3631ZM82.1834 27.7V30.54H86.7634V33.18H82.1834V36.26H87.3634V39H78.7634V24.96H87.3634V27.7H82.1834ZM100.684 24.96V27.7H96.9638V39H93.5438V27.7H89.8238V24.96H100.684ZM118.738 24.96V27.7H115.018V39H111.598V27.7H107.878V24.96H118.738ZM133.615 24.96V39H130.195V33.22H124.875V39H121.455V24.96H124.875V30.46H130.195V24.96H133.615ZM140.504 27.7V30.54H145.084V33.18H140.504V36.26H145.684V39H137.084V24.96H145.684V27.7H140.504ZM153.562 31.96C153.562 30.5733 153.862 29.34 154.462 28.26C155.062 27.1667 155.896 26.32 156.962 25.72C158.042 25.1067 159.262 24.8 160.622 24.8C162.289 24.8 163.716 25.24 164.902 26.12C166.089 27 166.882 28.2 167.282 29.72H163.522C163.242 29.1333 162.842 28.6867 162.322 28.38C161.816 28.0733 161.236 27.92 160.582 27.92C159.529 27.92 158.676 28.2867 158.022 29.02C157.369 29.7533 157.042 30.7333 157.042 31.96C157.042 33.1867 157.369 34.1667 158.022 34.9C158.676 35.6333 159.529 36 160.582 36C161.236 36 161.816 35.8467 162.322 35.54C162.842 35.2333 163.242 34.7867 163.522 34.2H167.282C166.882 35.72 166.089 36.92 164.902 37.8C163.716 38.6667 162.289 39.1 160.622 39.1C159.262 39.1 158.042 38.8 156.962 38.2C155.896 37.5867 155.062 36.74 154.462 35.66C153.862 34.58 153.562 33.3467 153.562 31.96ZM177.017 39.14C175.697 39.14 174.483 38.8333 173.377 38.22C172.283 37.6067 171.41 36.7533 170.757 35.66C170.117 34.5533 169.797 33.3133 169.797 31.94C169.797 30.5667 170.117 29.3333 170.757 28.24C171.41 27.1467 172.283 26.2933 173.377 25.68C174.483 25.0667 175.697 24.76 177.017 24.76C178.337 24.76 179.543 25.0667 180.637 25.68C181.743 26.2933 182.61 27.1467 183.237 28.24C183.877 29.3333 184.197 30.5667 184.197 31.94C184.197 33.3133 183.877 34.5533 183.237 35.66C182.597 36.7533 181.73 37.6067 180.637 38.22C179.543 38.8333 178.337 39.14 177.017 39.14ZM177.017 36.02C178.137 36.02 179.03 35.6467 179.697 34.9C180.377 34.1533 180.717 33.1667 180.717 31.94C180.717 30.7 180.377 29.7133 179.697 28.98C179.03 28.2333 178.137 27.86 177.017 27.86C175.883 27.86 174.977 28.2267 174.297 28.96C173.63 29.6933 173.297 30.6867 173.297 31.94C173.297 33.18 173.63 34.1733 174.297 34.92C174.977 35.6533 175.883 36.02 177.017 36.02ZM190.519 36.36H194.999V39H187.099V24.96H190.519V36.36ZM201.051 36.36H205.531V39H197.631V24.96H201.051V36.36ZM211.582 27.7V30.54H216.162V33.18H211.582V36.26H216.762V39H208.162V24.96H216.762V27.7H211.582ZM229.302 29.4C229.049 28.9333 228.682 28.58 228.202 28.34C227.736 28.0867 227.182 27.96 226.542 27.96C225.436 27.96 224.549 28.3267 223.882 29.06C223.216 29.78 222.882 30.7467 222.882 31.96C222.882 33.2533 223.229 34.2667 223.922 35C224.629 35.72 225.596 36.08 226.822 36.08C227.662 36.08 228.369 35.8667 228.942 35.44C229.529 35.0133 229.956 34.4 230.222 33.6H225.882V31.08H233.322V34.26C233.069 35.1133 232.636 35.9067 232.022 36.64C231.422 37.3733 230.656 37.9667 229.722 38.42C228.789 38.8733 227.736 39.1 226.562 39.1C225.176 39.1 223.936 38.8 222.842 38.2C221.762 37.5867 220.916 36.74 220.302 35.66C219.702 34.58 219.402 33.3467 219.402 31.96C219.402 30.5733 219.702 29.34 220.302 28.26C220.916 27.1667 221.762 26.32 222.842 25.72C223.922 25.1067 225.156 24.8 226.542 24.8C228.222 24.8 229.636 25.2067 230.782 26.02C231.942 26.8333 232.709 27.96 233.082 29.4H229.302ZM239.637 27.7V30.54H244.217V33.18H239.637V36.26H244.817V39H236.217V24.96H244.817V27.7H239.637ZM263.375 24.96V27.7H259.655V39H256.235V27.7H252.515V24.96H263.375ZM269.512 24.96V39H266.092V24.96H269.512ZM283.09 24.96V27.7H279.37V39H275.95V27.7H272.23V24.96H283.09ZM294.546 36.52H289.306L288.466 39H284.886L289.966 24.96H293.926L299.006 39H295.386L294.546 36.52ZM293.666 33.88L291.926 28.74L290.206 33.88H293.666ZM314.113 39H310.693L304.973 30.34V39H301.553V24.96H304.973L310.693 33.66V24.96H314.113V39ZM322.672 39.14C321.645 39.14 320.725 38.9733 319.912 38.64C319.098 38.3067 318.445 37.8133 317.952 37.16C317.472 36.5067 317.218 35.72 317.192 34.8H320.832C320.885 35.32 321.065 35.72 321.372 36C321.678 36.2667 322.078 36.4 322.572 36.4C323.078 36.4 323.478 36.2867 323.772 36.06C324.065 35.82 324.212 35.4933 324.212 35.08C324.212 34.7333 324.092 34.4467 323.852 34.22C323.625 33.9933 323.338 33.8067 322.992 33.66C322.658 33.5133 322.178 33.3467 321.552 33.16C320.645 32.88 319.905 32.6 319.332 32.32C318.758 32.04 318.265 31.6267 317.852 31.08C317.438 30.5333 317.232 29.82 317.232 28.94C317.232 27.6333 317.705 26.6133 318.652 25.88C319.598 25.1333 320.832 24.76 322.352 24.76C323.898 24.76 325.145 25.1333 326.092 25.88C327.038 26.6133 327.545 27.64 327.612 28.96H323.912C323.885 28.5067 323.718 28.1533 323.412 27.9C323.105 27.6333 322.712 27.5 322.232 27.5C321.818 27.5 321.485 27.6133 321.232 27.84C320.978 28.0533 320.852 28.3667 320.852 28.78C320.852 29.2333 321.065 29.5867 321.492 29.84C321.918 30.0933 322.585 30.3667 323.492 30.66C324.398 30.9667 325.132 31.26 325.692 31.54C326.265 31.82 326.758 32.2267 327.172 32.76C327.585 33.2933 327.792 33.98 327.792 34.82C327.792 35.62 327.585 36.3467 327.172 37C326.772 37.6533 326.185 38.1733 325.412 38.56C324.638 38.9467 323.725 39.14 322.672 39.14Z" fill="white"/>
</g>
<defs>
<filter id="filter0_d_806_8770" x="-62" y="-103" width="476.738" height="492" filterUnits="userSpaceOnUse" color-interpolation-filters="sRGB">
<feFlood flood-opacity="0" result="BackgroundImageFix"/>
<feColorMatrix in="SourceAlpha" type="matrix" values="0 0 0 0 0 0 0 0 0 0 0 0 0 0 0 0 0 0 127 0" result="hardAlpha"/>
<feOffset dx="5" dy="5"/>
<feGaussianBlur stdDeviation="5"/>
<feColorMatrix type="matrix" values="0 0 0 0 0.827451 0 0 0 0 0.827451 0 0 0 0 0.827451 0 0 0 1 0"/>
<feBlend mode="normal" in2="BackgroundImageFix" result="effect1_dropShadow_806_8770"/>
<feBlend mode="normal" in="SourceGraphic" in2="effect1_dropShadow_806_8770" result="shape"/>
</filter>
<linearGradient id="paint0_linear_806_8770" x1="45.2296" y1="205.058" x2="63.1404" y2="174.984" gradientUnits="userSpaceOnUse">
<stop stop-color="#2E3192"/>
<stop offset="1" stop-color="#B41E8E"/>
</linearGradient>
<linearGradient id="paint1_linear_806_8770" x1="94.0773" y1="120.179" x2="97.9378" y2="133.406" gradientUnits="userSpaceOnUse">
<stop stop-color="#6DCFF6"/>
<stop offset="0.13" stop-color="#86B7DE"/>
<stop offset="0.58" stop-color="#DC6A8F"/>
<stop offset="0.78" stop-color="#FF4C70"/>
</linearGradient>
<linearGradient id="paint2_linear_806_8770" x1="273.869" y1="43.5864" x2="277.412" y2="55.7584" gradientUnits="userSpaceOnUse">
<stop stop-color="#944EC8"/>
<stop offset="0.17" stop-color="#7C5AC9"/>
<stop offset="1" stop-color="#0D97D3"/>
</linearGradient>
<linearGradient id="paint3_linear_806_8770" x1="103.975" y1="97.1246" x2="6.84932" y2="126.494" gradientUnits="userSpaceOnUse">
<stop stop-color="#0072BC"/>
<stop offset="0.48" stop-color="#1F2B7E"/>
<stop offset="1" stop-color="#CF128C"/>
</linearGradient>
<linearGradient id="paint4_linear_806_8770" x1="-52.3915" y1="125.833" x2="96.69" y2="125.54" gradientUnits="userSpaceOnUse">
<stop stop-color="#0072BC"/>
<stop offset="0.48" stop-color="#1F2B7E"/>
<stop offset="1" stop-color="#CF128C"/>
</linearGradient>
<linearGradient id="paint5_linear_806_8770" x1="71.0704" y1="88.4254" x2="-1.18044" y2="155.526" gradientUnits="userSpaceOnUse">
<stop stop-color="#6DCFF6"/>
<stop offset="0.13" stop-color="#86B7DE"/>
<stop offset="0.58" stop-color="#DC6A8F"/>
<stop offset="0.78" stop-color="#FF4C70"/>
</linearGradient>
<linearGradient id="paint6_linear_806_8770" x1="277.861" y1="178.411" x2="261.008" y2="144.107" gradientUnits="userSpaceOnUse">
<stop stop-color="#2E3192"/>
<stop offset="1" stop-color="#FF4C70"/>
</linearGradient>
<linearGradient id="paint7_linear_806_8770" x1="255.457" y1="127.633" x2="250.354" y2="179.257" gradientUnits="userSpaceOnUse">
<stop stop-color="#6DCFF6"/>
<stop offset="0.13" stop-color="#86B7DE"/>
<stop offset="0.58" stop-color="#DC6A8F"/>
<stop offset="0.78" stop-color="#FF4C70"/>
</linearGradient>
<linearGradient id="paint8_linear_806_8770" x1="245.799" y1="108.295" x2="280.042" y2="155.288" gradientUnits="userSpaceOnUse">
<stop stop-color="#6DCFF6"/>
<stop offset="0.13" stop-color="#86B7DE"/>
<stop offset="0.58" stop-color="#DC6A8F"/>
<stop offset="0.78" stop-color="#FF4C70"/>
</linearGradient>
<linearGradient id="paint9_linear_806_8770" x1="75.0945" y1="75.8741" x2="83.5189" y2="97.9785" gradientUnits="userSpaceOnUse">
<stop stop-color="#6DCFF6"/>
<stop offset="0.13" stop-color="#86B7DE"/>
<stop offset="0.58" stop-color="#DC6A8F"/>
<stop offset="0.78" stop-color="#FF4C70"/>
</linearGradient>
<linearGradient id="paint10_linear_806_8770" x1="188.688" y1="121.983" x2="210.422" y2="121.983" gradientUnits="userSpaceOnUse">
<stop offset="0.02" stop-color="#EFD3EA"/>
<stop offset="0.22" stop-color="#70E4FD"/>
<stop offset="0.34" stop-color="#60C5DE" stop-opacity="0.86"/>
<stop offset="0.61" stop-color="#3A7692" stop-opacity="0.52"/>
<stop offset="0.99" stop-color="#00001E" stop-opacity="0"/>
</linearGradient>
<linearGradient id="paint11_linear_806_8770" x1="175.215" y1="121.983" x2="196.949" y2="121.983" gradientUnits="userSpaceOnUse">
<stop offset="0.02" stop-color="#EFD3EA"/>
<stop offset="0.22" stop-color="#70E4FD"/>
<stop offset="0.34" stop-color="#60C5DE" stop-opacity="0.86"/>
<stop offset="0.61" stop-color="#3A7692" stop-opacity="0.52"/>
<stop offset="0.99" stop-color="#00001E" stop-opacity="0"/>
</linearGradient>
<linearGradient id="paint12_linear_806_8770" x1="312" y1="127.544" x2="399.738" y2="127.544" gradientUnits="userSpaceOnUse">
<stop stop-color="#00001E" stop-opacity="0"/>
<stop offset="0.33" stop-color="#601A42" stop-opacity="0.44"/>
<stop offset="0.64" stop-color="#B73164" stop-opacity="0.84"/>
<stop offset="0.78" stop-color="#DA3B71"/>
<stop offset="0.98" stop-color="#EFD3EA"/>
</linearGradient>
<linearGradient id="paint13_linear_806_8770" x1="312.065" y1="99.6109" x2="352.834" y2="99.6109" gradientUnits="userSpaceOnUse">
<stop stop-color="#00001E" stop-opacity="0"/>
<stop offset="0.33" stop-color="#601A42" stop-opacity="0.44"/>
<stop offset="0.64" stop-color="#B73164" stop-opacity="0.84"/>
<stop offset="0.78" stop-color="#DA3B71"/>
<stop offset="0.98" stop-color="#EFD3EA"/>
</linearGradient>
<linearGradient id="paint14_linear_806_8770" x1="-22.0972" y1="13.4929" x2="66.6505" y2="13.4929" gradientUnits="userSpaceOnUse">
<stop stop-color="#70E4FD"/>
<stop offset="0.16" stop-color="#60C5DE" stop-opacity="0.86"/>
<stop offset="0.5" stop-color="#3A7692" stop-opacity="0.52"/>
<stop offset="0.99" stop-color="#00001E" stop-opacity="0"/>
</linearGradient>
<linearGradient id="paint15_linear_806_8770" x1="327.868" y1="233.725" x2="311.015" y2="199.421" gradientUnits="userSpaceOnUse">
<stop stop-color="#2E3192"/>
<stop offset="1" stop-color="#FF4C70"/>
</linearGradient>
<linearGradient id="paint16_linear_806_8770" x1="305.463" y1="182.947" x2="300.361" y2="234.571" gradientUnits="userSpaceOnUse">
<stop stop-color="#6DCFF6"/>
<stop offset="0.13" stop-color="#86B7DE"/>
<stop offset="0.58" stop-color="#DC6A8F"/>
<stop offset="0.78" stop-color="#FF4C70"/>
</linearGradient>
<linearGradient id="paint17_linear_806_8770" x1="295.806" y1="163.61" x2="330.049" y2="210.603" gradientUnits="userSpaceOnUse">
<stop stop-color="#6DCFF6"/>
<stop offset="0.13" stop-color="#86B7DE"/>
<stop offset="0.58" stop-color="#DC6A8F"/>
<stop offset="0.78" stop-color="#FF4C70"/>
</linearGradient>
<clipPath id="clip0_806_8770">
<rect width="375" height="233" fill="white"/>
</clipPath>
</defs>
</svg>
