<svg width="33" height="32" viewBox="0 0 33 32" fill="none" xmlns="http://www.w3.org/2000/svg">
<path d="M22.8333 25H10.8333M22.8333 25C23.8942 25 24.9116 25.4214 25.6617 26.1716C26.4119 26.9217 26.8333 27.9391 26.8333 29H6.83331C6.83331 27.9391 7.25474 26.9217 8.00489 26.1716C8.75503 25.4214 9.77245 25 10.8333 25M22.8333 25V20.5C22.8333 19.672 22.1626 19 21.3333 19H20.172M10.8333 25V20.5C10.8333 19.672 11.5053 19 12.3333 19H13.496M20.172 19H13.496M20.172 19C19.4231 17.7066 18.9755 16.261 18.8626 14.7707M13.496 19C14.2444 17.7065 14.6915 16.2609 14.804 14.7707M7.83331 5.648C6.52398 5.83867 5.22798 6.07067 3.94531 6.34133C4.24264 8.08638 5.11008 9.68364 6.4119 10.8832C7.71373 12.0827 9.37648 12.8168 11.14 12.9707M7.83331 5.648V6C7.83331 8.81067 9.12131 11.32 11.14 12.9707M7.83331 5.648V3.628C10.7746 3.21333 13.78 3 16.8333 3C19.888 3 22.8933 3.21333 25.8333 3.62667V5.648M11.14 12.9707C12.2067 13.8444 13.4605 14.4603 14.804 14.7707M25.8333 5.648V6C25.8333 8.81067 24.5453 11.32 22.5266 12.9707M25.8333 5.648C27.1364 5.8376 28.433 6.06883 29.7213 6.34133C29.424 8.08618 28.5568 9.68328 27.2552 10.8828C25.9537 12.0823 24.2912 12.8165 22.528 12.9707M22.528 12.9707C21.4609 13.8445 20.2066 14.4605 18.8626 14.7707M18.8626 14.7707C17.5273 15.0787 16.1393 15.0787 14.804 14.7707" stroke="white" stroke-width="2" stroke-linecap="round" stroke-linejoin="round"/>
</svg>
