<svg width="48" height="49" viewBox="0 0 48 49" fill="none" xmlns="http://www.w3.org/2000/svg">
<mask id="mask0_806_8741" style="mask-type:alpha" maskUnits="userSpaceOnUse" x="0" y="0" width="48" height="49">
<rect y="0.200012" width="48" height="48" fill="#D9D9D9"/>
</mask>
<g mask="url(#mask0_806_8741)">
<path d="M9.44961 39.6999C7.48294 39.6999 5.85828 39.0166 4.57561 37.6499C3.29161 36.2833 2.63294 34.6833 2.59961 32.8499C2.59961 32.5833 2.61628 32.2999 2.64961 31.9999C2.68294 31.6999 2.73294 31.4166 2.79961 31.1499L6.99961 14.3499C7.43294 12.7166 8.32494 11.3666 9.67561 10.2999C11.0249 9.23325 12.5496 8.69992 14.2496 8.69992H33.7496C35.4496 8.69992 36.9749 9.23325 38.3256 10.2999C39.6749 11.3666 40.5663 12.7166 40.9996 14.3499L45.1996 31.1499C45.2663 31.4499 45.3249 31.7413 45.3756 32.0239C45.4249 32.3079 45.4496 32.5999 45.4496 32.8999C45.4496 34.7666 44.7916 36.3666 43.4756 37.6999C42.1583 39.0333 40.5163 39.6999 38.5496 39.6999C37.2496 39.6999 36.0409 39.3586 34.9236 38.6759C33.8076 37.9919 32.9663 37.0499 32.3996 35.8499L30.9496 32.9499C30.7829 32.5499 30.4996 32.2413 30.0996 32.0239C29.6996 31.8079 29.2496 31.6999 28.7496 31.6999H19.2496C18.7496 31.6999 18.2996 31.8079 17.8996 32.0239C17.4996 32.2413 17.2163 32.5499 17.0496 32.9499L15.5996 35.8499C15.0329 37.0499 14.1909 37.9919 13.0736 38.6759C11.9576 39.3586 10.7496 39.6999 9.44961 39.6999ZM9.59961 36.6999C10.2663 36.6999 10.8916 36.5333 11.4756 36.1999C12.0583 35.8666 12.5496 35.3333 12.9496 34.5999L14.3496 31.6999C14.8163 30.7666 15.4829 30.0333 16.3496 29.4999C17.2163 28.9666 18.1829 28.6999 19.2496 28.6999H28.7496C29.7829 28.6999 30.7409 28.9746 31.6236 29.5239C32.5076 30.0746 33.1996 30.8166 33.6996 31.7499L35.0996 34.5999C35.4996 35.3333 35.9916 35.8666 36.5756 36.1999C37.1583 36.5333 37.7829 36.6999 38.4496 36.6999C39.4496 36.6999 40.3496 36.3586 41.1496 35.6759C41.9496 34.9919 42.3663 34.0833 42.3996 32.9499V32.4259C42.3996 32.2419 42.3663 32.0666 42.2996 31.8999L38.0996 15.1499C37.8329 14.1166 37.2996 13.2833 36.4996 12.6499C35.6996 12.0166 34.7829 11.6999 33.7496 11.6999H14.2496C13.2163 11.6999 12.2916 12.0166 11.4756 12.6499C10.6583 13.2833 10.1329 14.1166 9.89961 15.1499L5.69961 31.8999C5.66628 32.0666 5.63294 32.3999 5.59961 32.8999C5.59961 34.0333 6.01628 34.9499 6.84961 35.6499C7.68294 36.3499 8.59961 36.6999 9.59961 36.6999ZM26.9996 21.9499C26.4996 21.9499 26.0829 21.7833 25.7496 21.4499C25.4163 21.1166 25.2496 20.6999 25.2496 20.1999C25.2496 19.6999 25.4163 19.2833 25.7496 18.9499C26.0829 18.6166 26.4996 18.4499 26.9996 18.4499C27.4996 18.4499 27.9163 18.6166 28.2496 18.9499C28.5829 19.2833 28.7496 19.6999 28.7496 20.1999C28.7496 20.6999 28.5829 21.1166 28.2496 21.4499C27.9163 21.7833 27.4996 21.9499 26.9996 21.9499ZM30.9996 17.9499C30.4996 17.9499 30.0829 17.7833 29.7496 17.4499C29.4163 17.1166 29.2496 16.6999 29.2496 16.1999C29.2496 15.6999 29.4163 15.2833 29.7496 14.9499C30.0829 14.6166 30.4996 14.4499 30.9996 14.4499C31.4996 14.4499 31.9163 14.6166 32.2496 14.9499C32.5829 15.2833 32.7496 15.6999 32.7496 16.1999C32.7496 16.6999 32.5829 17.1166 32.2496 17.4499C31.9163 17.7833 31.4996 17.9499 30.9996 17.9499ZM30.9996 25.9499C30.4996 25.9499 30.0829 25.7833 29.7496 25.4499C29.4163 25.1166 29.2496 24.6999 29.2496 24.1999C29.2496 23.6999 29.4163 23.2833 29.7496 22.9499C30.0829 22.6166 30.4996 22.4499 30.9996 22.4499C31.4996 22.4499 31.9163 22.6166 32.2496 22.9499C32.5829 23.2833 32.7496 23.6999 32.7496 24.1999C32.7496 24.6999 32.5829 25.1166 32.2496 25.4499C31.9163 25.7833 31.4996 25.9499 30.9996 25.9499ZM34.9996 21.9499C34.4996 21.9499 34.0829 21.7833 33.7496 21.4499C33.4163 21.1166 33.2496 20.6999 33.2496 20.1999C33.2496 19.6999 33.4163 19.2833 33.7496 18.9499C34.0829 18.6166 34.4996 18.4499 34.9996 18.4499C35.4996 18.4499 35.9163 18.6166 36.2496 18.9499C36.5829 19.2833 36.7496 19.6999 36.7496 20.1999C36.7496 20.6999 36.5829 21.1166 36.2496 21.4499C35.9163 21.7833 35.4996 21.9499 34.9996 21.9499ZM16.9996 24.8999C16.6996 24.8999 16.4249 24.7746 16.1756 24.5239C15.9249 24.2746 15.7996 23.9999 15.7996 23.6999V21.3999H13.4996C13.1996 21.3999 12.9249 21.2746 12.6756 21.0239C12.4249 20.7746 12.2996 20.4999 12.2996 20.1999C12.2996 19.8999 12.4249 19.6246 12.6756 19.3739C12.9249 19.1246 13.1996 18.9999 13.4996 18.9999H15.7996V16.6999C15.7996 16.3999 15.9249 16.1246 16.1756 15.8739C16.4249 15.6246 16.6996 15.4999 16.9996 15.4999C17.2996 15.4999 17.5743 15.6246 17.8236 15.8739C18.0743 16.1246 18.1996 16.3999 18.1996 16.6999V18.9999H20.4996C20.7996 18.9999 21.0749 19.1246 21.3256 19.3739C21.5749 19.6246 21.6996 19.8999 21.6996 20.1999C21.6996 20.4999 21.5749 20.7746 21.3256 21.0239C21.0749 21.2746 20.7996 21.3999 20.4996 21.3999H18.1996V23.6999C18.1996 23.9999 18.0743 24.2746 17.8236 24.5239C17.5743 24.7746 17.2996 24.8999 16.9996 24.8999Z" fill="white"/>
</g>
</svg>
