<svg width="44" height="45" viewBox="0 0 44 45" fill="none" xmlns="http://www.w3.org/2000/svg">
<path d="M14.6665 24.0333V10.2833C14.6665 9.554 14.9562 8.85452 15.472 8.3388C15.9877 7.82307 16.6872 7.53334 17.4165 7.53334C18.1458 7.53334 18.8453 7.82307 19.361 8.3388C19.8768 8.85452 20.1665 9.554 20.1665 10.2833V22.2" stroke="white" stroke-width="2" stroke-linecap="round" stroke-linejoin="round"/>
<path d="M20.1665 10.2834V6.61668C20.1665 6.25555 20.2376 5.89795 20.3758 5.5643C20.514 5.23066 20.7166 4.9275 20.972 4.67214C21.2273 4.41678 21.5305 4.21422 21.8641 4.07602C22.1978 3.93781 22.5554 3.86668 22.9165 3.86668C23.2776 3.86668 23.6352 3.93781 23.9689 4.07602C24.3025 4.21422 24.6057 4.41678 24.861 4.67214C25.1164 4.9275 25.319 5.23066 25.4572 5.5643C25.5954 5.89795 25.6665 6.25555 25.6665 6.61668V22.2" stroke="white" stroke-width="2" stroke-linecap="round" stroke-linejoin="round"/>
<path d="M25.6665 10.2833C25.6665 9.554 25.9562 8.85452 26.472 8.3388C26.9877 7.82307 27.6872 7.53334 28.4165 7.53334C29.1458 7.53334 29.8453 7.82307 30.361 8.3388C30.8768 8.85452 31.1665 9.554 31.1665 10.2833V22.2" stroke="white" stroke-width="2" stroke-linecap="round" stroke-linejoin="round"/>
<path d="M31.1665 13.95C31.1665 13.2207 31.4562 12.5212 31.972 12.0055C32.4877 11.4897 33.1872 11.2 33.9165 11.2C34.6459 11.2 35.3453 11.4897 35.8611 12.0055C36.3768 12.5212 36.6665 13.2207 36.6665 13.95V29.5333C36.6665 32.4507 35.5076 35.2486 33.4447 37.3115C31.3818 39.3744 28.5839 40.5333 25.6665 40.5333H21.9998H22.3812C20.5595 40.5337 18.7662 40.0815 17.1624 39.2175C15.5586 38.3536 14.1945 37.1048 13.1925 35.5833C13.0723 35.4003 12.9525 35.217 12.8332 35.0333C12.2612 34.1552 10.2537 30.6553 6.80885 24.532C6.45767 23.9078 6.36387 23.1712 6.54738 22.479C6.7309 21.7867 7.17725 21.1933 7.79151 20.825C8.44579 20.4324 9.21248 20.2697 9.96981 20.3627C10.7271 20.4557 11.4317 20.7991 11.9715 21.3383L14.6665 24.0333" stroke="white" stroke-width="2" stroke-linecap="round" stroke-linejoin="round"/>
</svg>
