<svg width="35" height="39" viewBox="0 0 35 39" fill="none" xmlns="http://www.w3.org/2000/svg">
<path d="M19.979 16.1393L19.166 18.9853L18.353 16.1393C18.1429 15.4042 17.7489 14.7347 17.2083 14.194C16.6676 13.6534 15.9982 13.2594 15.263 13.0493L12.416 12.2353L15.262 11.4223C15.9972 11.2122 16.6666 10.8182 17.2073 10.2775C17.7479 9.73691 18.1419 9.06743 18.352 8.33229L19.166 5.48529L19.979 8.33129C20.1891 9.06643 20.5831 9.73591 21.1238 10.2765C21.6644 10.8172 22.3339 11.2112 23.069 11.4213L25.916 12.2353L23.07 13.0483C22.3349 13.2584 21.6654 13.6524 21.1248 14.193C20.5841 14.7337 20.1901 15.4032 19.98 16.1383L19.979 16.1393ZM28.425 8.95029L28.166 9.98529L27.907 8.95029C27.7588 8.35688 27.452 7.81491 27.0196 7.38232C26.5872 6.94973 26.0454 6.64278 25.452 6.49429L24.416 6.23529L25.452 5.97629C26.0454 5.8278 26.5872 5.52085 27.0196 5.08826C27.452 4.65567 27.7588 4.1137 27.907 3.52029L28.166 2.48529L28.425 3.52029C28.5733 4.11383 28.8802 4.65588 29.3128 5.08848C29.7454 5.52108 30.2875 5.82796 30.881 5.97629L31.916 6.23529L30.881 6.49429C30.2875 6.64262 29.7454 6.9495 29.3128 7.3821C28.8802 7.8147 28.5733 8.35676 28.425 8.95029ZM27.06 20.8023L26.666 21.9853L26.272 20.8023C26.1616 20.4709 25.9755 20.1698 25.7285 19.9228C25.4815 19.6758 25.1804 19.4897 24.849 19.3793L23.666 18.9853L24.849 18.5913C25.1804 18.4808 25.4815 18.2947 25.7285 18.0478C25.9755 17.8008 26.1616 17.4997 26.272 17.1683L26.666 15.9853L27.06 17.1683C27.1705 17.4997 27.3566 17.8008 27.6036 18.0478C27.8505 18.2947 28.1516 18.4808 28.483 18.5913L29.666 18.9853L28.483 19.3793C28.1516 19.4897 27.8505 19.6758 27.6036 19.9228C27.3566 20.1698 27.1705 20.4709 27.06 20.8023Z" stroke="white" stroke-width="1.5" stroke-linecap="round" stroke-linejoin="round"/>
<path d="M15.916 20.2353C15.916 21.2299 15.5209 22.1837 14.8176 22.8869C14.1144 23.5902 13.1606 23.9853 12.166 23.9853C11.1714 23.9853 10.2176 23.5902 9.51434 22.8869C8.81108 22.1837 8.41599 21.2299 8.41599 20.2353C8.41599 19.2407 8.81108 18.2869 9.51434 17.5836C10.2176 16.8804 11.1714 16.4853 12.166 16.4853C13.1606 16.4853 14.1144 16.8804 14.8176 17.5836C15.5209 18.2869 15.916 19.2407 15.916 20.2353V20.2353ZM4.66699 34.3533C4.69913 32.3856 5.50333 30.5095 6.90617 29.1293C8.30901 27.7492 10.1981 26.9758 12.166 26.9758C14.1339 26.9758 16.023 27.7492 17.4258 29.1293C18.8287 30.5095 19.6329 32.3856 19.665 34.3533C17.3124 35.4321 14.7541 35.9888 12.166 35.9853C9.48999 35.9853 6.94999 35.4013 4.66699 34.3533Z" stroke="white" stroke-width="1.5" stroke-linecap="round" stroke-linejoin="round"/>
</svg>
