<svg width="343" height="164" viewBox="0 0 343 164" fill="none" xmlns="http://www.w3.org/2000/svg">
<path d="M-7.44092 -30.2457C43.5544 -37.74 73.5354 -37.74 124.531 -30.2457C189.653 -20.6753 221.475 45.7419 283.903 24.8046C317.296 13.6052 340.383 -12.2701 355.481 -30.2457C370.579 -48.2214 384 -73.4995 384 -73.4995" stroke="#AB04D8" stroke-opacity="0.2" stroke-linecap="round"/>
<path d="M-9.3374 100.551C41.6579 93.0565 71.6389 93.0565 122.634 100.551C187.757 110.121 219.579 176.538 282.007 155.601C315.4 144.402 338.486 118.526 353.585 100.551C368.683 82.5751 382.104 57.297 382.104 57.297" stroke="#AB04D8" stroke-opacity="0.2" stroke-linecap="round"/>
<path d="M-8.38818 -1.8117C42.4836 -9.30601 72.3921 -9.30601 123.264 -1.8117C188.229 7.75873 219.974 74.1759 282.251 53.2386C315.563 42.0392 338.593 16.164 353.655 -1.8117C368.717 -19.7874 382.105 -45.0655 382.105 -45.0655" stroke="#AB04D8" stroke-opacity="0.2" stroke-linecap="round"/>
<path d="M-10.2847 128.985C40.5872 121.491 70.4956 121.491 121.367 128.985C186.332 138.555 218.077 204.972 280.354 184.035C313.666 172.836 336.697 146.96 351.759 128.985C366.82 111.009 380.209 85.731 380.209 85.731" stroke="#AB04D8" stroke-opacity="0.2" stroke-linecap="round"/>
<path d="M-8.38818 31.9088C42.4836 24.4839 72.3921 24.4839 123.264 31.9088C188.229 41.3906 219.974 107.193 282.251 86.4493C315.563 75.3536 338.593 49.718 353.655 31.9088C368.717 14.0996 382.105 -10.9445 382.105 -10.9445" stroke="#AB04D8" stroke-opacity="0.2" stroke-linecap="round"/>
<path d="M-10.2847 162.705C40.5872 155.28 70.4956 155.28 121.367 162.705C186.332 172.187 218.077 237.989 280.354 217.245C313.666 206.15 336.697 180.514 351.759 162.705C366.82 144.896 380.209 119.852 380.209 119.852" stroke="#AB04D8" stroke-opacity="0.2" stroke-linecap="round"/>
<path d="M-8.38818 60.7433C42.4836 53.249 72.3921 53.249 123.264 60.7433C188.229 70.3137 219.974 136.731 282.251 115.794C315.563 104.594 338.593 78.719 353.655 60.7433C368.717 42.7676 382.105 17.4895 382.105 17.4895" stroke="#AB04D8" stroke-opacity="0.2" stroke-linecap="round"/>
<path d="M-10.2847 191.539C40.5872 184.045 70.4956 184.045 121.367 191.539C186.332 201.11 218.077 267.527 280.354 246.59C313.666 235.39 336.697 209.515 351.759 191.539C366.82 173.564 380.209 148.286 380.209 148.286" stroke="#AB04D8" stroke-opacity="0.2" stroke-linecap="round"/>
<path d="M-8.38818 82.142C42.4836 74.7171 72.3921 74.7171 123.264 82.142C188.229 91.6239 219.974 157.426 282.251 136.683C315.563 125.587 338.593 99.9513 353.655 82.142C368.717 64.3328 382.105 39.2888 382.105 39.2888" stroke="#AB04D8" stroke-opacity="0.2" stroke-linecap="round"/>
</svg>
