<svg width="14" height="390" viewBox="0 0 14 390" fill="none" xmlns="http://www.w3.org/2000/svg">
<line x1="7" y1="9.20001" x2="6.99998" y2="385.2" stroke="white" stroke-width="2" stroke-dasharray="2 2"/>
<line x1="7" y1="9.20001" x2="6.99998" y2="385.2" stroke="url(#paint0_linear_806_8744)" stroke-width="2" stroke-dasharray="2 2"/>
<mask id="mask0_806_8744" style="mask-type:alpha" maskUnits="userSpaceOnUse" x="-2" y="-1" width="17" height="17">
<rect x="14.9087" y="-0.799988" width="16" height="16" transform="rotate(90 14.9087 -0.799988)" fill="#D9D9D9"/>
</mask>
<g mask="url(#mask0_806_8744)">
<path d="M0.475131 4.54985L1.42513 3.59985L6.90846 9.08318L12.3918 3.59985L13.3418 4.54985L6.90846 10.9832L0.475131 4.54985Z" fill="white"/>
<path d="M0.475131 4.54985L1.42513 3.59985L6.90846 9.08318L12.3918 3.59985L13.3418 4.54985L6.90846 10.9832L0.475131 4.54985Z" fill="url(#paint1_linear_806_8744)"/>
</g>
<mask id="mask1_806_8744" style="mask-type:alpha" maskUnits="userSpaceOnUse" x="-2" y="99" width="17" height="17">
<rect x="14.9087" y="99.2" width="16" height="16" transform="rotate(90 14.9087 99.2)" fill="#D9D9D9"/>
</mask>
<g mask="url(#mask1_806_8744)">
<path d="M0.475131 104.55L1.42513 103.6L6.90846 109.083L12.3918 103.6L13.3418 104.55L6.90846 110.983L0.475131 104.55Z" fill="white"/>
<path d="M0.475131 104.55L1.42513 103.6L6.90846 109.083L12.3918 103.6L13.3418 104.55L6.90846 110.983L0.475131 104.55Z" fill="url(#paint2_linear_806_8744)"/>
</g>
<mask id="mask2_806_8744" style="mask-type:alpha" maskUnits="userSpaceOnUse" x="-2" y="191" width="17" height="17">
<rect x="14.9087" y="191.2" width="16" height="16" transform="rotate(90 14.9087 191.2)" fill="#D9D9D9"/>
</mask>
<g mask="url(#mask2_806_8744)">
<path d="M0.475131 196.55L1.42513 195.6L6.90846 201.083L12.3918 195.6L13.3418 196.55L6.90846 202.983L0.475131 196.55Z" fill="white"/>
<path d="M0.475131 196.55L1.42513 195.6L6.90846 201.083L12.3918 195.6L13.3418 196.55L6.90846 202.983L0.475131 196.55Z" fill="url(#paint3_linear_806_8744)"/>
</g>
<mask id="mask3_806_8744" style="mask-type:alpha" maskUnits="userSpaceOnUse" x="-2" y="283" width="17" height="17">
<rect x="14.9087" y="283.2" width="16" height="16" transform="rotate(90 14.9087 283.2)" fill="#D9D9D9"/>
</mask>
<g mask="url(#mask3_806_8744)">
<path d="M0.475131 288.55L1.42513 287.6L6.90846 293.083L12.3918 287.6L13.3418 288.55L6.90846 294.983L0.475131 288.55Z" fill="white"/>
<path d="M0.475131 288.55L1.42513 287.6L6.90846 293.083L12.3918 287.6L13.3418 288.55L6.90846 294.983L0.475131 288.55Z" fill="url(#paint4_linear_806_8744)"/>
</g>
<mask id="mask4_806_8744" style="mask-type:alpha" maskUnits="userSpaceOnUse" x="-2" y="375" width="17" height="17">
<rect x="14.9087" y="375.2" width="16" height="16" transform="rotate(90 14.9087 375.2)" fill="#D9D9D9"/>
</mask>
<g mask="url(#mask4_806_8744)">
<path d="M0.475131 380.55L1.42513 379.6L6.90846 385.083L12.3918 379.6L13.3418 380.55L6.90846 386.983L0.475131 380.55Z" fill="white"/>
<path d="M0.475131 380.55L1.42513 379.6L6.90846 385.083L12.3918 379.6L13.3418 380.55L6.90846 386.983L0.475131 380.55Z" fill="url(#paint5_linear_806_8744)"/>
</g>
<defs>
<linearGradient id="paint0_linear_806_8744" x1="5.49998" y1="385.2" x2="5.49829" y2="9.20001" gradientUnits="userSpaceOnUse">
<stop stop-color="#C86AF5"/>
<stop offset="1" stop-color="#3B64BE"/>
</linearGradient>
<linearGradient id="paint1_linear_806_8744" x1="6.90847" y1="10.9832" x2="6.90847" y2="3.59985" gradientUnits="userSpaceOnUse">
<stop stop-color="#C86AF5"/>
<stop offset="1" stop-color="#3B64BE"/>
</linearGradient>
<linearGradient id="paint2_linear_806_8744" x1="6.90847" y1="110.983" x2="6.90847" y2="103.6" gradientUnits="userSpaceOnUse">
<stop stop-color="#C86AF5"/>
<stop offset="1" stop-color="#3B64BE"/>
</linearGradient>
<linearGradient id="paint3_linear_806_8744" x1="6.90847" y1="202.983" x2="6.90847" y2="195.6" gradientUnits="userSpaceOnUse">
<stop stop-color="#C86AF5"/>
<stop offset="1" stop-color="#3B64BE"/>
</linearGradient>
<linearGradient id="paint4_linear_806_8744" x1="6.90847" y1="294.983" x2="6.90847" y2="287.6" gradientUnits="userSpaceOnUse">
<stop stop-color="#C86AF5"/>
<stop offset="1" stop-color="#3B64BE"/>
</linearGradient>
<linearGradient id="paint5_linear_806_8744" x1="6.90847" y1="386.983" x2="6.90847" y2="379.6" gradientUnits="userSpaceOnUse">
<stop stop-color="#C86AF5"/>
<stop offset="1" stop-color="#3B64BE"/>
</linearGradient>
</defs>
</svg>
